ISO-10303-21;
HEADER;
/* Generated by software containing ST-Developer
 * from STEP Tools, Inc. (www.steptools.com) 
 */

FILE_DESCRIPTION(
/* description */ (''),
/* implementation_level */ '2;1');

FILE_NAME(
/* name */ 
'C:\\Users\\3770k\\Documents\\3d prints\\Keycaps\\2.0u blank costar.st
p',
/* time_stamp */ '2017-01-05T15:52:25-04:00',
/* author */ ('3770k'),
/* organization */ (''),
/* preprocessor_version */ 'ST-DEVELOPER v15.6',
/* originating_system */ 'Autodesk Inventor 2015',
/* authorisation */ '');

FILE_SCHEMA (('AUTOMOTIVE_DESIGN { 1 0 10303 214 3 1 1 }'));
ENDSEC;

DATA;
#10=MECHANICAL_DESIGN_GEOMETRIC_PRESENTATION_REPRESENTATION('',(#13),#1911);
#11=SHAPE_REPRESENTATION_RELATIONSHIP('SRR','None',#1920,#12);
#12=ADVANCED_BREP_SHAPE_REPRESENTATION($,(#14),#1910);
#13=STYLED_ITEM('',(#1929),#14);
#14=MANIFOLD_SOLID_BREP('Solid1',#1207);
#15=CYLINDRICAL_SURFACE('',#1258,3.5);
#16=CYLINDRICAL_SURFACE('',#1260,3.5);
#17=FACE_BOUND('',#122,.T.);
#18=FACE_BOUND('',#130,.T.);
#19=CIRCLE('',#1244,3.5);
#20=CIRCLE('',#1256,3.5);
#21=CIRCLE('',#1257,3.5);
#22=CIRCLE('',#1259,3.5);
#23=FACE_OUTER_BOUND('',#83,.T.);
#24=FACE_OUTER_BOUND('',#84,.T.);
#25=FACE_OUTER_BOUND('',#85,.T.);
#26=FACE_OUTER_BOUND('',#86,.T.);
#27=FACE_OUTER_BOUND('',#87,.T.);
#28=FACE_OUTER_BOUND('',#88,.T.);
#29=FACE_OUTER_BOUND('',#89,.T.);
#30=FACE_OUTER_BOUND('',#90,.T.);
#31=FACE_OUTER_BOUND('',#91,.T.);
#32=FACE_OUTER_BOUND('',#92,.T.);
#33=FACE_OUTER_BOUND('',#93,.T.);
#34=FACE_OUTER_BOUND('',#94,.T.);
#35=FACE_OUTER_BOUND('',#95,.T.);
#36=FACE_OUTER_BOUND('',#96,.T.);
#37=FACE_OUTER_BOUND('',#97,.T.);
#38=FACE_OUTER_BOUND('',#98,.T.);
#39=FACE_OUTER_BOUND('',#99,.T.);
#40=FACE_OUTER_BOUND('',#100,.T.);
#41=FACE_OUTER_BOUND('',#101,.T.);
#42=FACE_OUTER_BOUND('',#102,.T.);
#43=FACE_OUTER_BOUND('',#103,.T.);
#44=FACE_OUTER_BOUND('',#104,.T.);
#45=FACE_OUTER_BOUND('',#105,.T.);
#46=FACE_OUTER_BOUND('',#106,.T.);
#47=FACE_OUTER_BOUND('',#107,.T.);
#48=FACE_OUTER_BOUND('',#108,.T.);
#49=FACE_OUTER_BOUND('',#109,.T.);
#50=FACE_OUTER_BOUND('',#110,.T.);
#51=FACE_OUTER_BOUND('',#111,.T.);
#52=FACE_OUTER_BOUND('',#112,.T.);
#53=FACE_OUTER_BOUND('',#113,.T.);
#54=FACE_OUTER_BOUND('',#114,.T.);
#55=FACE_OUTER_BOUND('',#115,.T.);
#56=FACE_OUTER_BOUND('',#116,.T.);
#57=FACE_OUTER_BOUND('',#117,.T.);
#58=FACE_OUTER_BOUND('',#118,.T.);
#59=FACE_OUTER_BOUND('',#119,.T.);
#60=FACE_OUTER_BOUND('',#120,.T.);
#61=FACE_OUTER_BOUND('',#121,.T.);
#62=FACE_OUTER_BOUND('',#123,.T.);
#63=FACE_OUTER_BOUND('',#124,.T.);
#64=FACE_OUTER_BOUND('',#125,.T.);
#65=FACE_OUTER_BOUND('',#126,.T.);
#66=FACE_OUTER_BOUND('',#127,.T.);
#67=FACE_OUTER_BOUND('',#128,.T.);
#68=FACE_OUTER_BOUND('',#129,.T.);
#69=FACE_OUTER_BOUND('',#131,.T.);
#70=FACE_OUTER_BOUND('',#132,.T.);
#71=FACE_OUTER_BOUND('',#133,.T.);
#72=FACE_OUTER_BOUND('',#134,.T.);
#73=FACE_OUTER_BOUND('',#135,.T.);
#74=FACE_OUTER_BOUND('',#136,.T.);
#75=FACE_OUTER_BOUND('',#137,.T.);
#76=FACE_OUTER_BOUND('',#138,.T.);
#77=FACE_OUTER_BOUND('',#139,.T.);
#78=FACE_OUTER_BOUND('',#140,.T.);
#79=FACE_OUTER_BOUND('',#141,.T.);
#80=FACE_OUTER_BOUND('',#142,.T.);
#81=FACE_OUTER_BOUND('',#143,.T.);
#82=FACE_OUTER_BOUND('',#144,.T.);
#83=EDGE_LOOP('',(#753,#754,#755,#756));
#84=EDGE_LOOP('',(#757,#758,#759,#760,#761,#762,#763,#764,#765,#766,#767,
#768));
#85=EDGE_LOOP('',(#769,#770,#771,#772));
#86=EDGE_LOOP('',(#773,#774,#775,#776));
#87=EDGE_LOOP('',(#777,#778,#779,#780));
#88=EDGE_LOOP('',(#781,#782,#783,#784));
#89=EDGE_LOOP('',(#785,#786,#787,#788));
#90=EDGE_LOOP('',(#789,#790,#791,#792));
#91=EDGE_LOOP('',(#793,#794,#795,#796));
#92=EDGE_LOOP('',(#797,#798,#799,#800));
#93=EDGE_LOOP('',(#801,#802,#803,#804));
#94=EDGE_LOOP('',(#805,#806,#807,#808));
#95=EDGE_LOOP('',(#809,#810,#811,#812,#813,#814,#815,#816,#817,#818,#819,
#820));
#96=EDGE_LOOP('',(#821,#822,#823,#824));
#97=EDGE_LOOP('',(#825,#826,#827,#828));
#98=EDGE_LOOP('',(#829,#830,#831,#832));
#99=EDGE_LOOP('',(#833,#834,#835,#836));
#100=EDGE_LOOP('',(#837,#838,#839,#840));
#101=EDGE_LOOP('',(#841,#842,#843,#844));
#102=EDGE_LOOP('',(#845,#846,#847,#848));
#103=EDGE_LOOP('',(#849,#850,#851,#852));
#104=EDGE_LOOP('',(#853,#854,#855,#856));
#105=EDGE_LOOP('',(#857,#858,#859,#860));
#106=EDGE_LOOP('',(#861,#862,#863,#864,#865,#866,#867,#868,#869,#870,#871,
#872));
#107=EDGE_LOOP('',(#873,#874,#875,#876));
#108=EDGE_LOOP('',(#877,#878,#879,#880));
#109=EDGE_LOOP('',(#881,#882,#883,#884));
#110=EDGE_LOOP('',(#885,#886,#887,#888));
#111=EDGE_LOOP('',(#889,#890,#891,#892));
#112=EDGE_LOOP('',(#893,#894,#895,#896));
#113=EDGE_LOOP('',(#897,#898,#899,#900));
#114=EDGE_LOOP('',(#901,#902,#903,#904));
#115=EDGE_LOOP('',(#905,#906,#907,#908));
#116=EDGE_LOOP('',(#909,#910,#911,#912,#913,#914,#915,#916));
#117=EDGE_LOOP('',(#917,#918,#919,#920,#921,#922,#923,#924));
#118=EDGE_LOOP('',(#925,#926,#927,#928,#929,#930,#931,#932));
#119=EDGE_LOOP('',(#933,#934,#935,#936,#937,#938,#939,#940));
#120=EDGE_LOOP('',(#941,#942,#943,#944,#945,#946,#947,#948));
#121=EDGE_LOOP('',(#949,#950,#951,#952));
#122=EDGE_LOOP('',(#953,#954,#955,#956,#957,#958,#959,#960,#961,#962,#963,
#964,#965,#966,#967,#968,#969,#970,#971,#972));
#123=EDGE_LOOP('',(#973,#974,#975,#976));
#124=EDGE_LOOP('',(#977,#978,#979,#980,#981,#982,#983,#984));
#125=EDGE_LOOP('',(#985,#986,#987,#988));
#126=EDGE_LOOP('',(#989,#990,#991,#992,#993,#994,#995,#996));
#127=EDGE_LOOP('',(#997,#998,#999,#1000));
#128=EDGE_LOOP('',(#1001,#1002,#1003,#1004));
#129=EDGE_LOOP('',(#1005,#1006,#1007,#1008,#1009,#1010,#1011,#1012,#1013,
#1014,#1015,#1016));
#130=EDGE_LOOP('',(#1017,#1018,#1019,#1020));
#131=EDGE_LOOP('',(#1021,#1022,#1023,#1024));
#132=EDGE_LOOP('',(#1025,#1026,#1027,#1028));
#133=EDGE_LOOP('',(#1029,#1030,#1031,#1032,#1033,#1034,#1035,#1036));
#134=EDGE_LOOP('',(#1037,#1038,#1039,#1040,#1041,#1042,#1043,#1044));
#135=EDGE_LOOP('',(#1045,#1046,#1047,#1048));
#136=EDGE_LOOP('',(#1049,#1050,#1051,#1052));
#137=EDGE_LOOP('',(#1053,#1054,#1055,#1056));
#138=EDGE_LOOP('',(#1057,#1058,#1059,#1060));
#139=EDGE_LOOP('',(#1061,#1062,#1063,#1064,#1065,#1066,#1067,#1068));
#140=EDGE_LOOP('',(#1069,#1070,#1071,#1072));
#141=EDGE_LOOP('',(#1073,#1074,#1075,#1076));
#142=EDGE_LOOP('',(#1077,#1078,#1079,#1080));
#143=EDGE_LOOP('',(#1081,#1082,#1083,#1084));
#144=EDGE_LOOP('',(#1085,#1086,#1087,#1088));
#145=LINE('',#1571,#309);
#146=LINE('',#1573,#310);
#147=LINE('',#1575,#311);
#148=LINE('',#1576,#312);
#149=LINE('',#1579,#313);
#150=LINE('',#1581,#314);
#151=LINE('',#1583,#315);
#152=LINE('',#1585,#316);
#153=LINE('',#1587,#317);
#154=LINE('',#1589,#318);
#155=LINE('',#1591,#319);
#156=LINE('',#1593,#320);
#157=LINE('',#1595,#321);
#158=LINE('',#1597,#322);
#159=LINE('',#1598,#323);
#160=LINE('',#1602,#324);
#161=LINE('',#1603,#325);
#162=LINE('',#1604,#326);
#163=LINE('',#1607,#327);
#164=LINE('',#1608,#328);
#165=LINE('',#1610,#329);
#166=LINE('',#1613,#330);
#167=LINE('',#1615,#331);
#168=LINE('',#1616,#332);
#169=LINE('',#1619,#333);
#170=LINE('',#1620,#334);
#171=LINE('',#1623,#335);
#172=LINE('',#1624,#336);
#173=LINE('',#1627,#337);
#174=LINE('',#1628,#338);
#175=LINE('',#1631,#339);
#176=LINE('',#1632,#340);
#177=LINE('',#1635,#341);
#178=LINE('',#1636,#342);
#179=LINE('',#1640,#343);
#180=LINE('',#1642,#344);
#181=LINE('',#1644,#345);
#182=LINE('',#1645,#346);
#183=LINE('',#1648,#347);
#184=LINE('',#1650,#348);
#185=LINE('',#1652,#349);
#186=LINE('',#1654,#350);
#187=LINE('',#1656,#351);
#188=LINE('',#1658,#352);
#189=LINE('',#1660,#353);
#190=LINE('',#1662,#354);
#191=LINE('',#1664,#355);
#192=LINE('',#1666,#356);
#193=LINE('',#1667,#357);
#194=LINE('',#1670,#358);
#195=LINE('',#1671,#359);
#196=LINE('',#1674,#360);
#197=LINE('',#1676,#361);
#198=LINE('',#1677,#362);
#199=LINE('',#1680,#363);
#200=LINE('',#1681,#364);
#201=LINE('',#1684,#365);
#202=LINE('',#1685,#366);
#203=LINE('',#1688,#367);
#204=LINE('',#1689,#368);
#205=LINE('',#1692,#369);
#206=LINE('',#1693,#370);
#207=LINE('',#1696,#371);
#208=LINE('',#1698,#372);
#209=LINE('',#1699,#373);
#210=LINE('',#1702,#374);
#211=LINE('',#1703,#375);
#212=LINE('',#1705,#376);
#213=LINE('',#1709,#377);
#214=LINE('',#1711,#378);
#215=LINE('',#1713,#379);
#216=LINE('',#1714,#380);
#217=LINE('',#1717,#381);
#218=LINE('',#1719,#382);
#219=LINE('',#1721,#383);
#220=LINE('',#1723,#384);
#221=LINE('',#1725,#385);
#222=LINE('',#1727,#386);
#223=LINE('',#1729,#387);
#224=LINE('',#1731,#388);
#225=LINE('',#1733,#389);
#226=LINE('',#1735,#390);
#227=LINE('',#1736,#391);
#228=LINE('',#1739,#392);
#229=LINE('',#1740,#393);
#230=LINE('',#1743,#394);
#231=LINE('',#1745,#395);
#232=LINE('',#1746,#396);
#233=LINE('',#1749,#397);
#234=LINE('',#1750,#398);
#235=LINE('',#1753,#399);
#236=LINE('',#1754,#400);
#237=LINE('',#1757,#401);
#238=LINE('',#1758,#402);
#239=LINE('',#1761,#403);
#240=LINE('',#1762,#404);
#241=LINE('',#1765,#405);
#242=LINE('',#1767,#406);
#243=LINE('',#1768,#407);
#244=LINE('',#1771,#408);
#245=LINE('',#1772,#409);
#246=LINE('',#1774,#410);
#247=LINE('',#1777,#411);
#248=LINE('',#1779,#412);
#249=LINE('',#1781,#413);
#250=LINE('',#1783,#414);
#251=LINE('',#1784,#415);
#252=LINE('',#1787,#416);
#253=LINE('',#1791,#417);
#254=LINE('',#1793,#418);
#255=LINE('',#1795,#419);
#256=LINE('',#1797,#420);
#257=LINE('',#1798,#421);
#258=LINE('',#1801,#422);
#259=LINE('',#1803,#423);
#260=LINE('',#1805,#424);
#261=LINE('',#1807,#425);
#262=LINE('',#1808,#426);
#263=LINE('',#1811,#427);
#264=LINE('',#1812,#428);
#265=LINE('',#1816,#429);
#266=LINE('',#1818,#430);
#267=LINE('',#1820,#431);
#268=LINE('',#1821,#432);
#269=LINE('',#1823,#433);
#270=LINE('',#1825,#434);
#271=LINE('',#1827,#435);
#272=LINE('',#1829,#436);
#273=LINE('',#1830,#437);
#274=LINE('',#1832,#438);
#275=LINE('',#1834,#439);
#276=LINE('',#1835,#440);
#277=LINE('',#1838,#441);
#278=LINE('',#1840,#442);
#279=LINE('',#1841,#443);
#280=LINE('',#1843,#444);
#281=LINE('',#1845,#445);
#282=LINE('',#1846,#446);
#283=LINE('',#1849,#447);
#284=LINE('',#1850,#448);
#285=LINE('',#1853,#449);
#286=LINE('',#1854,#450);
#287=LINE('',#1857,#451);
#288=LINE('',#1858,#452);
#289=LINE('',#1861,#453);
#290=LINE('',#1862,#454);
#291=LINE('',#1865,#455);
#292=LINE('',#1866,#456);
#293=LINE('',#1868,#457);
#294=LINE('',#1869,#458);
#295=LINE('',#1874,#459);
#296=LINE('',#1877,#460);
#297=LINE('',#1880,#461);
#298=LINE('',#1882,#462);
#299=LINE('',#1885,#463);
#300=LINE('',#1887,#464);
#301=LINE('',#1894,#465);
#302=LINE('',#1896,#466);
#303=LINE('',#1898,#467);
#304=LINE('',#1899,#468);
#305=LINE('',#1901,#469);
#306=LINE('',#1902,#470);
#307=LINE('',#1904,#471);
#308=LINE('',#1906,#472);
#309=VECTOR('',#1277,5.);
#310=VECTOR('',#1278,2.);
#311=VECTOR('',#1279,5.);
#312=VECTOR('',#1280,2.);
#313=VECTOR('',#1283,1.);
#314=VECTOR('',#1284,2.);
#315=VECTOR('',#1285,2.5);
#316=VECTOR('',#1286,0.999999999999999);
#317=VECTOR('',#1287,2.5);
#318=VECTOR('',#1288,2.);
#319=VECTOR('',#1289,1.);
#320=VECTOR('',#1290,2.);
#321=VECTOR('',#1291,2.5);
#322=VECTOR('',#1292,1.);
#323=VECTOR('',#1293,2.5);
#324=VECTOR('',#1296,2.5);
#325=VECTOR('',#1297,5.);
#326=VECTOR('',#1298,5.);
#327=VECTOR('',#1301,1.);
#328=VECTOR('',#1302,5.);
#329=VECTOR('',#1305,2.5);
#330=VECTOR('',#1308,5.);
#331=VECTOR('',#1309,2.);
#332=VECTOR('',#1310,5.);
#333=VECTOR('',#1313,2.5);
#334=VECTOR('',#1314,5.);
#335=VECTOR('',#1317,0.999999999999999);
#336=VECTOR('',#1318,5.);
#337=VECTOR('',#1321,2.5);
#338=VECTOR('',#1322,5.);
#339=VECTOR('',#1325,5.);
#340=VECTOR('',#1326,2.);
#341=VECTOR('',#1329,5.);
#342=VECTOR('',#1330,2.);
#343=VECTOR('',#1333,5.);
#344=VECTOR('',#1334,2.);
#345=VECTOR('',#1335,5.);
#346=VECTOR('',#1336,2.);
#347=VECTOR('',#1339,1.);
#348=VECTOR('',#1340,2.);
#349=VECTOR('',#1341,2.5);
#350=VECTOR('',#1342,1.);
#351=VECTOR('',#1343,2.5);
#352=VECTOR('',#1344,2.);
#353=VECTOR('',#1345,1.);
#354=VECTOR('',#1346,2.);
#355=VECTOR('',#1347,2.5);
#356=VECTOR('',#1348,1.);
#357=VECTOR('',#1349,2.5);
#358=VECTOR('',#1352,2.5);
#359=VECTOR('',#1353,5.);
#360=VECTOR('',#1356,5.);
#361=VECTOR('',#1357,2.);
#362=VECTOR('',#1358,5.);
#363=VECTOR('',#1361,2.5);
#364=VECTOR('',#1362,5.);
#365=VECTOR('',#1365,1.);
#366=VECTOR('',#1366,5.);
#367=VECTOR('',#1369,2.5);
#368=VECTOR('',#1370,5.);
#369=VECTOR('',#1373,5.);
#370=VECTOR('',#1374,2.);
#371=VECTOR('',#1377,5.);
#372=VECTOR('',#1378,2.);
#373=VECTOR('',#1379,5.);
#374=VECTOR('',#1382,2.5);
#375=VECTOR('',#1383,5.);
#376=VECTOR('',#1386,1.);
#377=VECTOR('',#1389,5.);
#378=VECTOR('',#1390,2.);
#379=VECTOR('',#1391,5.);
#380=VECTOR('',#1392,2.);
#381=VECTOR('',#1395,0.999999999999996);
#382=VECTOR('',#1396,2.);
#383=VECTOR('',#1397,2.5);
#384=VECTOR('',#1398,1.);
#385=VECTOR('',#1399,2.5);
#386=VECTOR('',#1400,2.);
#387=VECTOR('',#1401,0.999999999999996);
#388=VECTOR('',#1402,2.);
#389=VECTOR('',#1403,2.5);
#390=VECTOR('',#1404,1.);
#391=VECTOR('',#1405,2.5);
#392=VECTOR('',#1408,2.5);
#393=VECTOR('',#1409,5.);
#394=VECTOR('',#1412,5.);
#395=VECTOR('',#1413,2.);
#396=VECTOR('',#1414,5.);
#397=VECTOR('',#1417,2.5);
#398=VECTOR('',#1418,5.);
#399=VECTOR('',#1421,1.);
#400=VECTOR('',#1422,5.);
#401=VECTOR('',#1425,2.5);
#402=VECTOR('',#1426,5.);
#403=VECTOR('',#1429,5.);
#404=VECTOR('',#1430,2.);
#405=VECTOR('',#1433,5.);
#406=VECTOR('',#1434,2.);
#407=VECTOR('',#1435,5.);
#408=VECTOR('',#1438,2.5);
#409=VECTOR('',#1439,5.);
#410=VECTOR('',#1442,1.);
#411=VECTOR('',#1445,1.94948974278318);
#412=VECTOR('',#1446,6.5);
#413=VECTOR('',#1447,4.89897948556636);
#414=VECTOR('',#1448,6.5);
#415=VECTOR('',#1449,1.94948974278318);
#416=VECTOR('',#1452,1.94948974278317);
#417=VECTOR('',#1457,4.42846362991498);
#418=VECTOR('',#1458,6.80999093703508);
#419=VECTOR('',#1459,6.39721362991498);
#420=VECTOR('',#1460,6.5);
#421=VECTOR('',#1461,3.);
#422=VECTOR('',#1464,3.);
#423=VECTOR('',#1465,6.5);
#424=VECTOR('',#1466,6.39721362991498);
#425=VECTOR('',#1467,6.80999093703508);
#426=VECTOR('',#1468,4.42846362991498);
#427=VECTOR('',#1471,3.);
#428=VECTOR('',#1472,5.);
#429=VECTOR('',#1475,37.);
#430=VECTOR('',#1476,18.);
#431=VECTOR('',#1477,37.);
#432=VECTOR('',#1478,18.);
#433=VECTOR('',#1479,4.42846362991498);
#434=VECTOR('',#1480,4.89799929775296);
#435=VECTOR('',#1481,33.85692725983);
#436=VECTOR('',#1482,4.89799929775296);
#437=VECTOR('',#1483,4.42846362991498);
#438=VECTOR('',#1484,4.89799929775296);
#439=VECTOR('',#1485,33.85692725983);
#440=VECTOR('',#1486,4.89799929775296);
#441=VECTOR('',#1489,5.);
#442=VECTOR('',#1490,6.5);
#443=VECTOR('',#1491,5.);
#444=VECTOR('',#1494,3.);
#445=VECTOR('',#1495,6.39721362991498);
#446=VECTOR('',#1496,6.80999093703508);
#447=VECTOR('',#1499,6.5);
#448=VECTOR('',#1500,5.);
#449=VECTOR('',#1503,6.80999093703508);
#450=VECTOR('',#1504,6.39721362991498);
#451=VECTOR('',#1507,2.46049929775296);
#452=VECTOR('',#1508,7.23307561224822);
#453=VECTOR('',#1511,2.46049929775296);
#454=VECTOR('',#1512,7.23307561224822);
#455=VECTOR('',#1515,2.46049929775296);
#456=VECTOR('',#1516,29.79442725983);
#457=VECTOR('',#1517,2.46049929775296);
#458=VECTOR('',#1518,29.79442725983);
#459=VECTOR('',#1523,4.89897948556635);
#460=VECTOR('',#1526,6.5);
#461=VECTOR('',#1531,6.5);
#462=VECTOR('',#1534,1.94948974278317);
#463=VECTOR('',#1539,7.23307561224822);
#464=VECTOR('',#1542,7.23307561224822);
#465=VECTOR('',#1551,32.);
#466=VECTOR('',#1552,12.);
#467=VECTOR('',#1553,32.);
#468=VECTOR('',#1554,12.);
#469=VECTOR('',#1557,8.90224690738243);
#470=VECTOR('',#1558,8.90224690738243);
#471=VECTOR('',#1561,8.90224690738243);
#472=VECTOR('',#1564,8.90224690738243);
#473=VERTEX_POINT('',#1569);
#474=VERTEX_POINT('',#1570);
#475=VERTEX_POINT('',#1572);
#476=VERTEX_POINT('',#1574);
#477=VERTEX_POINT('',#1578);
#478=VERTEX_POINT('',#1580);
#479=VERTEX_POINT('',#1582);
#480=VERTEX_POINT('',#1584);
#481=VERTEX_POINT('',#1586);
#482=VERTEX_POINT('',#1588);
#483=VERTEX_POINT('',#1590);
#484=VERTEX_POINT('',#1592);
#485=VERTEX_POINT('',#1594);
#486=VERTEX_POINT('',#1596);
#487=VERTEX_POINT('',#1600);
#488=VERTEX_POINT('',#1601);
#489=VERTEX_POINT('',#1606);
#490=VERTEX_POINT('',#1612);
#491=VERTEX_POINT('',#1614);
#492=VERTEX_POINT('',#1618);
#493=VERTEX_POINT('',#1622);
#494=VERTEX_POINT('',#1626);
#495=VERTEX_POINT('',#1630);
#496=VERTEX_POINT('',#1634);
#497=VERTEX_POINT('',#1638);
#498=VERTEX_POINT('',#1639);
#499=VERTEX_POINT('',#1641);
#500=VERTEX_POINT('',#1643);
#501=VERTEX_POINT('',#1647);
#502=VERTEX_POINT('',#1649);
#503=VERTEX_POINT('',#1651);
#504=VERTEX_POINT('',#1653);
#505=VERTEX_POINT('',#1655);
#506=VERTEX_POINT('',#1657);
#507=VERTEX_POINT('',#1659);
#508=VERTEX_POINT('',#1661);
#509=VERTEX_POINT('',#1663);
#510=VERTEX_POINT('',#1665);
#511=VERTEX_POINT('',#1669);
#512=VERTEX_POINT('',#1673);
#513=VERTEX_POINT('',#1675);
#514=VERTEX_POINT('',#1679);
#515=VERTEX_POINT('',#1683);
#516=VERTEX_POINT('',#1687);
#517=VERTEX_POINT('',#1691);
#518=VERTEX_POINT('',#1695);
#519=VERTEX_POINT('',#1697);
#520=VERTEX_POINT('',#1701);
#521=VERTEX_POINT('',#1707);
#522=VERTEX_POINT('',#1708);
#523=VERTEX_POINT('',#1710);
#524=VERTEX_POINT('',#1712);
#525=VERTEX_POINT('',#1716);
#526=VERTEX_POINT('',#1718);
#527=VERTEX_POINT('',#1720);
#528=VERTEX_POINT('',#1722);
#529=VERTEX_POINT('',#1724);
#530=VERTEX_POINT('',#1726);
#531=VERTEX_POINT('',#1728);
#532=VERTEX_POINT('',#1730);
#533=VERTEX_POINT('',#1732);
#534=VERTEX_POINT('',#1734);
#535=VERTEX_POINT('',#1738);
#536=VERTEX_POINT('',#1742);
#537=VERTEX_POINT('',#1744);
#538=VERTEX_POINT('',#1748);
#539=VERTEX_POINT('',#1752);
#540=VERTEX_POINT('',#1756);
#541=VERTEX_POINT('',#1760);
#542=VERTEX_POINT('',#1764);
#543=VERTEX_POINT('',#1766);
#544=VERTEX_POINT('',#1770);
#545=VERTEX_POINT('',#1776);
#546=VERTEX_POINT('',#1778);
#547=VERTEX_POINT('',#1780);
#548=VERTEX_POINT('',#1782);
#549=VERTEX_POINT('',#1786);
#550=VERTEX_POINT('',#1790);
#551=VERTEX_POINT('',#1792);
#552=VERTEX_POINT('',#1794);
#553=VERTEX_POINT('',#1796);
#554=VERTEX_POINT('',#1800);
#555=VERTEX_POINT('',#1802);
#556=VERTEX_POINT('',#1804);
#557=VERTEX_POINT('',#1806);
#558=VERTEX_POINT('',#1810);
#559=VERTEX_POINT('',#1814);
#560=VERTEX_POINT('',#1815);
#561=VERTEX_POINT('',#1817);
#562=VERTEX_POINT('',#1819);
#563=VERTEX_POINT('',#1822);
#564=VERTEX_POINT('',#1824);
#565=VERTEX_POINT('',#1826);
#566=VERTEX_POINT('',#1828);
#567=VERTEX_POINT('',#1831);
#568=VERTEX_POINT('',#1833);
#569=VERTEX_POINT('',#1837);
#570=VERTEX_POINT('',#1839);
#571=VERTEX_POINT('',#1844);
#572=VERTEX_POINT('',#1848);
#573=VERTEX_POINT('',#1852);
#574=VERTEX_POINT('',#1856);
#575=VERTEX_POINT('',#1860);
#576=VERTEX_POINT('',#1864);
#577=VERTEX_POINT('',#1867);
#578=VERTEX_POINT('',#1870);
#579=VERTEX_POINT('',#1872);
#580=VERTEX_POINT('',#1876);
#581=VERTEX_POINT('',#1892);
#582=VERTEX_POINT('',#1893);
#583=VERTEX_POINT('',#1895);
#584=VERTEX_POINT('',#1897);
#585=EDGE_CURVE('',#473,#474,#145,.T.);
#586=EDGE_CURVE('',#473,#475,#146,.T.);
#587=EDGE_CURVE('',#476,#475,#147,.T.);
#588=EDGE_CURVE('',#474,#476,#148,.T.);
#589=EDGE_CURVE('',#477,#473,#149,.T.);
#590=EDGE_CURVE('',#478,#477,#150,.T.);
#591=EDGE_CURVE('',#479,#478,#151,.T.);
#592=EDGE_CURVE('',#480,#479,#152,.T.);
#593=EDGE_CURVE('',#481,#480,#153,.T.);
#594=EDGE_CURVE('',#482,#481,#154,.T.);
#595=EDGE_CURVE('',#483,#482,#155,.T.);
#596=EDGE_CURVE('',#484,#483,#156,.T.);
#597=EDGE_CURVE('',#485,#484,#157,.T.);
#598=EDGE_CURVE('',#486,#485,#158,.T.);
#599=EDGE_CURVE('',#475,#486,#159,.T.);
#600=EDGE_CURVE('',#487,#488,#160,.T.);
#601=EDGE_CURVE('',#487,#485,#161,.T.);
#602=EDGE_CURVE('',#488,#484,#162,.T.);
#603=EDGE_CURVE('',#489,#487,#163,.T.);
#604=EDGE_CURVE('',#489,#486,#164,.T.);
#605=EDGE_CURVE('',#476,#489,#165,.T.);
#606=EDGE_CURVE('',#490,#477,#166,.T.);
#607=EDGE_CURVE('',#491,#490,#167,.T.);
#608=EDGE_CURVE('',#491,#478,#168,.T.);
#609=EDGE_CURVE('',#492,#491,#169,.T.);
#610=EDGE_CURVE('',#492,#479,#170,.T.);
#611=EDGE_CURVE('',#493,#492,#171,.T.);
#612=EDGE_CURVE('',#493,#480,#172,.T.);
#613=EDGE_CURVE('',#494,#493,#173,.T.);
#614=EDGE_CURVE('',#494,#481,#174,.T.);
#615=EDGE_CURVE('',#482,#495,#175,.T.);
#616=EDGE_CURVE('',#495,#494,#176,.T.);
#617=EDGE_CURVE('',#496,#483,#177,.T.);
#618=EDGE_CURVE('',#488,#496,#178,.T.);
#619=EDGE_CURVE('',#497,#498,#179,.T.);
#620=EDGE_CURVE('',#497,#499,#180,.T.);
#621=EDGE_CURVE('',#500,#499,#181,.T.);
#622=EDGE_CURVE('',#498,#500,#182,.T.);
#623=EDGE_CURVE('',#501,#497,#183,.T.);
#624=EDGE_CURVE('',#502,#501,#184,.T.);
#625=EDGE_CURVE('',#503,#502,#185,.T.);
#626=EDGE_CURVE('',#504,#503,#186,.T.);
#627=EDGE_CURVE('',#505,#504,#187,.T.);
#628=EDGE_CURVE('',#506,#505,#188,.T.);
#629=EDGE_CURVE('',#507,#506,#189,.T.);
#630=EDGE_CURVE('',#508,#507,#190,.T.);
#631=EDGE_CURVE('',#509,#508,#191,.T.);
#632=EDGE_CURVE('',#510,#509,#192,.T.);
#633=EDGE_CURVE('',#499,#510,#193,.T.);
#634=EDGE_CURVE('',#500,#511,#194,.T.);
#635=EDGE_CURVE('',#511,#510,#195,.T.);
#636=EDGE_CURVE('',#512,#501,#196,.T.);
#637=EDGE_CURVE('',#513,#512,#197,.T.);
#638=EDGE_CURVE('',#513,#502,#198,.T.);
#639=EDGE_CURVE('',#514,#513,#199,.T.);
#640=EDGE_CURVE('',#514,#503,#200,.T.);
#641=EDGE_CURVE('',#515,#514,#201,.T.);
#642=EDGE_CURVE('',#515,#504,#202,.T.);
#643=EDGE_CURVE('',#516,#515,#203,.T.);
#644=EDGE_CURVE('',#516,#505,#204,.T.);
#645=EDGE_CURVE('',#506,#517,#205,.T.);
#646=EDGE_CURVE('',#517,#516,#206,.T.);
#647=EDGE_CURVE('',#518,#507,#207,.T.);
#648=EDGE_CURVE('',#519,#518,#208,.T.);
#649=EDGE_CURVE('',#519,#508,#209,.T.);
#650=EDGE_CURVE('',#520,#519,#210,.T.);
#651=EDGE_CURVE('',#520,#509,#211,.T.);
#652=EDGE_CURVE('',#511,#520,#212,.T.);
#653=EDGE_CURVE('',#521,#522,#213,.T.);
#654=EDGE_CURVE('',#521,#523,#214,.T.);
#655=EDGE_CURVE('',#524,#523,#215,.T.);
#656=EDGE_CURVE('',#522,#524,#216,.T.);
#657=EDGE_CURVE('',#525,#521,#217,.T.);
#658=EDGE_CURVE('',#526,#525,#218,.T.);
#659=EDGE_CURVE('',#527,#526,#219,.T.);
#660=EDGE_CURVE('',#528,#527,#220,.T.);
#661=EDGE_CURVE('',#529,#528,#221,.T.);
#662=EDGE_CURVE('',#530,#529,#222,.T.);
#663=EDGE_CURVE('',#531,#530,#223,.T.);
#664=EDGE_CURVE('',#532,#531,#224,.T.);
#665=EDGE_CURVE('',#533,#532,#225,.T.);
#666=EDGE_CURVE('',#534,#533,#226,.T.);
#667=EDGE_CURVE('',#523,#534,#227,.T.);
#668=EDGE_CURVE('',#524,#535,#228,.T.);
#669=EDGE_CURVE('',#535,#534,#229,.T.);
#670=EDGE_CURVE('',#536,#525,#230,.T.);
#671=EDGE_CURVE('',#537,#536,#231,.T.);
#672=EDGE_CURVE('',#537,#526,#232,.T.);
#673=EDGE_CURVE('',#538,#537,#233,.T.);
#674=EDGE_CURVE('',#538,#527,#234,.T.);
#675=EDGE_CURVE('',#539,#538,#235,.T.);
#676=EDGE_CURVE('',#539,#528,#236,.T.);
#677=EDGE_CURVE('',#540,#539,#237,.T.);
#678=EDGE_CURVE('',#540,#529,#238,.T.);
#679=EDGE_CURVE('',#530,#541,#239,.T.);
#680=EDGE_CURVE('',#541,#540,#240,.T.);
#681=EDGE_CURVE('',#542,#531,#241,.T.);
#682=EDGE_CURVE('',#543,#542,#242,.T.);
#683=EDGE_CURVE('',#543,#532,#243,.T.);
#684=EDGE_CURVE('',#544,#543,#244,.T.);
#685=EDGE_CURVE('',#544,#533,#245,.T.);
#686=EDGE_CURVE('',#535,#544,#246,.T.);
#687=EDGE_CURVE('',#545,#474,#247,.T.);
#688=EDGE_CURVE('',#546,#545,#248,.T.);
#689=EDGE_CURVE('',#547,#546,#249,.T.);
#690=EDGE_CURVE('',#547,#548,#250,.T.);
#691=EDGE_CURVE('',#490,#548,#251,.T.);
#692=EDGE_CURVE('',#496,#549,#252,.T.);
#693=EDGE_CURVE('',#549,#545,#19,.T.);
#694=EDGE_CURVE('',#498,#550,#253,.T.);
#695=EDGE_CURVE('',#551,#550,#254,.T.);
#696=EDGE_CURVE('',#552,#551,#255,.T.);
#697=EDGE_CURVE('',#552,#553,#256,.T.);
#698=EDGE_CURVE('',#553,#512,#257,.T.);
#699=EDGE_CURVE('',#522,#554,#258,.T.);
#700=EDGE_CURVE('',#554,#555,#259,.T.);
#701=EDGE_CURVE('',#556,#555,#260,.T.);
#702=EDGE_CURVE('',#557,#556,#261,.T.);
#703=EDGE_CURVE('',#557,#536,#262,.T.);
#704=EDGE_CURVE('',#558,#542,#263,.T.);
#705=EDGE_CURVE('',#554,#558,#264,.T.);
#706=EDGE_CURVE('',#559,#560,#265,.T.);
#707=EDGE_CURVE('',#560,#561,#266,.T.);
#708=EDGE_CURVE('',#561,#562,#267,.T.);
#709=EDGE_CURVE('',#562,#559,#268,.T.);
#710=EDGE_CURVE('',#563,#518,#269,.T.);
#711=EDGE_CURVE('',#563,#564,#270,.T.);
#712=EDGE_CURVE('',#564,#565,#271,.T.);
#713=EDGE_CURVE('',#565,#566,#272,.T.);
#714=EDGE_CURVE('',#541,#566,#273,.T.);
#715=EDGE_CURVE('',#557,#567,#274,.T.);
#716=EDGE_CURVE('',#567,#568,#275,.T.);
#717=EDGE_CURVE('',#568,#550,#276,.T.);
#718=EDGE_CURVE('',#569,#552,#277,.T.);
#719=EDGE_CURVE('',#570,#569,#278,.T.);
#720=EDGE_CURVE('',#553,#570,#279,.T.);
#721=EDGE_CURVE('',#517,#570,#280,.T.);
#722=EDGE_CURVE('',#571,#569,#281,.T.);
#723=EDGE_CURVE('',#563,#571,#282,.T.);
#724=EDGE_CURVE('',#572,#558,#283,.T.);
#725=EDGE_CURVE('',#555,#572,#284,.T.);
#726=EDGE_CURVE('',#573,#566,#285,.T.);
#727=EDGE_CURVE('',#572,#573,#286,.T.);
#728=EDGE_CURVE('',#574,#571,#287,.T.);
#729=EDGE_CURVE('',#574,#564,#288,.T.);
#730=EDGE_CURVE('',#575,#556,#289,.T.);
#731=EDGE_CURVE('',#575,#567,#290,.T.);
#732=EDGE_CURVE('',#551,#576,#291,.T.);
#733=EDGE_CURVE('',#576,#575,#292,.T.);
#734=EDGE_CURVE('',#573,#577,#293,.T.);
#735=EDGE_CURVE('',#577,#574,#294,.T.);
#736=EDGE_CURVE('',#578,#547,#20,.T.);
#737=EDGE_CURVE('',#546,#579,#21,.T.);
#738=EDGE_CURVE('',#579,#578,#295,.T.);
#739=EDGE_CURVE('',#578,#580,#296,.T.);
#740=EDGE_CURVE('',#548,#580,#22,.T.);
#741=EDGE_CURVE('',#579,#549,#297,.T.);
#742=EDGE_CURVE('',#580,#495,#298,.T.);
#743=EDGE_CURVE('',#576,#568,#299,.F.);
#744=EDGE_CURVE('',#577,#565,#300,.T.);
#745=EDGE_CURVE('',#581,#582,#301,.T.);
#746=EDGE_CURVE('',#583,#581,#302,.T.);
#747=EDGE_CURVE('',#584,#583,#303,.T.);
#748=EDGE_CURVE('',#582,#584,#304,.T.);
#749=EDGE_CURVE('',#582,#560,#305,.T.);
#750=EDGE_CURVE('',#581,#559,#306,.T.);
#751=EDGE_CURVE('',#584,#561,#307,.T.);
#752=EDGE_CURVE('',#583,#562,#308,.T.);
#753=ORIENTED_EDGE('',*,*,#585,.F.);
#754=ORIENTED_EDGE('',*,*,#586,.T.);
#755=ORIENTED_EDGE('',*,*,#587,.F.);
#756=ORIENTED_EDGE('',*,*,#588,.F.);
#757=ORIENTED_EDGE('',*,*,#589,.F.);
#758=ORIENTED_EDGE('',*,*,#590,.F.);
#759=ORIENTED_EDGE('',*,*,#591,.F.);
#760=ORIENTED_EDGE('',*,*,#592,.F.);
#761=ORIENTED_EDGE('',*,*,#593,.F.);
#762=ORIENTED_EDGE('',*,*,#594,.F.);
#763=ORIENTED_EDGE('',*,*,#595,.F.);
#764=ORIENTED_EDGE('',*,*,#596,.F.);
#765=ORIENTED_EDGE('',*,*,#597,.F.);
#766=ORIENTED_EDGE('',*,*,#598,.F.);
#767=ORIENTED_EDGE('',*,*,#599,.F.);
#768=ORIENTED_EDGE('',*,*,#586,.F.);
#769=ORIENTED_EDGE('',*,*,#600,.F.);
#770=ORIENTED_EDGE('',*,*,#601,.T.);
#771=ORIENTED_EDGE('',*,*,#597,.T.);
#772=ORIENTED_EDGE('',*,*,#602,.F.);
#773=ORIENTED_EDGE('',*,*,#603,.F.);
#774=ORIENTED_EDGE('',*,*,#604,.T.);
#775=ORIENTED_EDGE('',*,*,#598,.T.);
#776=ORIENTED_EDGE('',*,*,#601,.F.);
#777=ORIENTED_EDGE('',*,*,#605,.F.);
#778=ORIENTED_EDGE('',*,*,#587,.T.);
#779=ORIENTED_EDGE('',*,*,#599,.T.);
#780=ORIENTED_EDGE('',*,*,#604,.F.);
#781=ORIENTED_EDGE('',*,*,#606,.F.);
#782=ORIENTED_EDGE('',*,*,#607,.F.);
#783=ORIENTED_EDGE('',*,*,#608,.T.);
#784=ORIENTED_EDGE('',*,*,#590,.T.);
#785=ORIENTED_EDGE('',*,*,#609,.F.);
#786=ORIENTED_EDGE('',*,*,#610,.T.);
#787=ORIENTED_EDGE('',*,*,#591,.T.);
#788=ORIENTED_EDGE('',*,*,#608,.F.);
#789=ORIENTED_EDGE('',*,*,#611,.F.);
#790=ORIENTED_EDGE('',*,*,#612,.T.);
#791=ORIENTED_EDGE('',*,*,#592,.T.);
#792=ORIENTED_EDGE('',*,*,#610,.F.);
#793=ORIENTED_EDGE('',*,*,#613,.F.);
#794=ORIENTED_EDGE('',*,*,#614,.T.);
#795=ORIENTED_EDGE('',*,*,#593,.T.);
#796=ORIENTED_EDGE('',*,*,#612,.F.);
#797=ORIENTED_EDGE('',*,*,#615,.F.);
#798=ORIENTED_EDGE('',*,*,#594,.T.);
#799=ORIENTED_EDGE('',*,*,#614,.F.);
#800=ORIENTED_EDGE('',*,*,#616,.F.);
#801=ORIENTED_EDGE('',*,*,#617,.F.);
#802=ORIENTED_EDGE('',*,*,#618,.F.);
#803=ORIENTED_EDGE('',*,*,#602,.T.);
#804=ORIENTED_EDGE('',*,*,#596,.T.);
#805=ORIENTED_EDGE('',*,*,#619,.F.);
#806=ORIENTED_EDGE('',*,*,#620,.T.);
#807=ORIENTED_EDGE('',*,*,#621,.F.);
#808=ORIENTED_EDGE('',*,*,#622,.F.);
#809=ORIENTED_EDGE('',*,*,#623,.F.);
#810=ORIENTED_EDGE('',*,*,#624,.F.);
#811=ORIENTED_EDGE('',*,*,#625,.F.);
#812=ORIENTED_EDGE('',*,*,#626,.F.);
#813=ORIENTED_EDGE('',*,*,#627,.F.);
#814=ORIENTED_EDGE('',*,*,#628,.F.);
#815=ORIENTED_EDGE('',*,*,#629,.F.);
#816=ORIENTED_EDGE('',*,*,#630,.F.);
#817=ORIENTED_EDGE('',*,*,#631,.F.);
#818=ORIENTED_EDGE('',*,*,#632,.F.);
#819=ORIENTED_EDGE('',*,*,#633,.F.);
#820=ORIENTED_EDGE('',*,*,#620,.F.);
#821=ORIENTED_EDGE('',*,*,#634,.F.);
#822=ORIENTED_EDGE('',*,*,#621,.T.);
#823=ORIENTED_EDGE('',*,*,#633,.T.);
#824=ORIENTED_EDGE('',*,*,#635,.F.);
#825=ORIENTED_EDGE('',*,*,#636,.F.);
#826=ORIENTED_EDGE('',*,*,#637,.F.);
#827=ORIENTED_EDGE('',*,*,#638,.T.);
#828=ORIENTED_EDGE('',*,*,#624,.T.);
#829=ORIENTED_EDGE('',*,*,#639,.F.);
#830=ORIENTED_EDGE('',*,*,#640,.T.);
#831=ORIENTED_EDGE('',*,*,#625,.T.);
#832=ORIENTED_EDGE('',*,*,#638,.F.);
#833=ORIENTED_EDGE('',*,*,#641,.F.);
#834=ORIENTED_EDGE('',*,*,#642,.T.);
#835=ORIENTED_EDGE('',*,*,#626,.T.);
#836=ORIENTED_EDGE('',*,*,#640,.F.);
#837=ORIENTED_EDGE('',*,*,#643,.F.);
#838=ORIENTED_EDGE('',*,*,#644,.T.);
#839=ORIENTED_EDGE('',*,*,#627,.T.);
#840=ORIENTED_EDGE('',*,*,#642,.F.);
#841=ORIENTED_EDGE('',*,*,#645,.F.);
#842=ORIENTED_EDGE('',*,*,#628,.T.);
#843=ORIENTED_EDGE('',*,*,#644,.F.);
#844=ORIENTED_EDGE('',*,*,#646,.F.);
#845=ORIENTED_EDGE('',*,*,#647,.F.);
#846=ORIENTED_EDGE('',*,*,#648,.F.);
#847=ORIENTED_EDGE('',*,*,#649,.T.);
#848=ORIENTED_EDGE('',*,*,#630,.T.);
#849=ORIENTED_EDGE('',*,*,#650,.F.);
#850=ORIENTED_EDGE('',*,*,#651,.T.);
#851=ORIENTED_EDGE('',*,*,#631,.T.);
#852=ORIENTED_EDGE('',*,*,#649,.F.);
#853=ORIENTED_EDGE('',*,*,#652,.F.);
#854=ORIENTED_EDGE('',*,*,#635,.T.);
#855=ORIENTED_EDGE('',*,*,#632,.T.);
#856=ORIENTED_EDGE('',*,*,#651,.F.);
#857=ORIENTED_EDGE('',*,*,#653,.F.);
#858=ORIENTED_EDGE('',*,*,#654,.T.);
#859=ORIENTED_EDGE('',*,*,#655,.F.);
#860=ORIENTED_EDGE('',*,*,#656,.F.);
#861=ORIENTED_EDGE('',*,*,#657,.F.);
#862=ORIENTED_EDGE('',*,*,#658,.F.);
#863=ORIENTED_EDGE('',*,*,#659,.F.);
#864=ORIENTED_EDGE('',*,*,#660,.F.);
#865=ORIENTED_EDGE('',*,*,#661,.F.);
#866=ORIENTED_EDGE('',*,*,#662,.F.);
#867=ORIENTED_EDGE('',*,*,#663,.F.);
#868=ORIENTED_EDGE('',*,*,#664,.F.);
#869=ORIENTED_EDGE('',*,*,#665,.F.);
#870=ORIENTED_EDGE('',*,*,#666,.F.);
#871=ORIENTED_EDGE('',*,*,#667,.F.);
#872=ORIENTED_EDGE('',*,*,#654,.F.);
#873=ORIENTED_EDGE('',*,*,#668,.F.);
#874=ORIENTED_EDGE('',*,*,#655,.T.);
#875=ORIENTED_EDGE('',*,*,#667,.T.);
#876=ORIENTED_EDGE('',*,*,#669,.F.);
#877=ORIENTED_EDGE('',*,*,#670,.F.);
#878=ORIENTED_EDGE('',*,*,#671,.F.);
#879=ORIENTED_EDGE('',*,*,#672,.T.);
#880=ORIENTED_EDGE('',*,*,#658,.T.);
#881=ORIENTED_EDGE('',*,*,#673,.F.);
#882=ORIENTED_EDGE('',*,*,#674,.T.);
#883=ORIENTED_EDGE('',*,*,#659,.T.);
#884=ORIENTED_EDGE('',*,*,#672,.F.);
#885=ORIENTED_EDGE('',*,*,#675,.F.);
#886=ORIENTED_EDGE('',*,*,#676,.T.);
#887=ORIENTED_EDGE('',*,*,#660,.T.);
#888=ORIENTED_EDGE('',*,*,#674,.F.);
#889=ORIENTED_EDGE('',*,*,#677,.F.);
#890=ORIENTED_EDGE('',*,*,#678,.T.);
#891=ORIENTED_EDGE('',*,*,#661,.T.);
#892=ORIENTED_EDGE('',*,*,#676,.F.);
#893=ORIENTED_EDGE('',*,*,#679,.F.);
#894=ORIENTED_EDGE('',*,*,#662,.T.);
#895=ORIENTED_EDGE('',*,*,#678,.F.);
#896=ORIENTED_EDGE('',*,*,#680,.F.);
#897=ORIENTED_EDGE('',*,*,#681,.F.);
#898=ORIENTED_EDGE('',*,*,#682,.F.);
#899=ORIENTED_EDGE('',*,*,#683,.T.);
#900=ORIENTED_EDGE('',*,*,#664,.T.);
#901=ORIENTED_EDGE('',*,*,#684,.F.);
#902=ORIENTED_EDGE('',*,*,#685,.T.);
#903=ORIENTED_EDGE('',*,*,#665,.T.);
#904=ORIENTED_EDGE('',*,*,#683,.F.);
#905=ORIENTED_EDGE('',*,*,#686,.F.);
#906=ORIENTED_EDGE('',*,*,#669,.T.);
#907=ORIENTED_EDGE('',*,*,#666,.T.);
#908=ORIENTED_EDGE('',*,*,#685,.F.);
#909=ORIENTED_EDGE('',*,*,#606,.T.);
#910=ORIENTED_EDGE('',*,*,#589,.T.);
#911=ORIENTED_EDGE('',*,*,#585,.T.);
#912=ORIENTED_EDGE('',*,*,#687,.F.);
#913=ORIENTED_EDGE('',*,*,#688,.F.);
#914=ORIENTED_EDGE('',*,*,#689,.F.);
#915=ORIENTED_EDGE('',*,*,#690,.T.);
#916=ORIENTED_EDGE('',*,*,#691,.F.);
#917=ORIENTED_EDGE('',*,*,#588,.T.);
#918=ORIENTED_EDGE('',*,*,#605,.T.);
#919=ORIENTED_EDGE('',*,*,#603,.T.);
#920=ORIENTED_EDGE('',*,*,#600,.T.);
#921=ORIENTED_EDGE('',*,*,#618,.T.);
#922=ORIENTED_EDGE('',*,*,#692,.T.);
#923=ORIENTED_EDGE('',*,*,#693,.T.);
#924=ORIENTED_EDGE('',*,*,#687,.T.);
#925=ORIENTED_EDGE('',*,*,#636,.T.);
#926=ORIENTED_EDGE('',*,*,#623,.T.);
#927=ORIENTED_EDGE('',*,*,#619,.T.);
#928=ORIENTED_EDGE('',*,*,#694,.T.);
#929=ORIENTED_EDGE('',*,*,#695,.F.);
#930=ORIENTED_EDGE('',*,*,#696,.F.);
#931=ORIENTED_EDGE('',*,*,#697,.T.);
#932=ORIENTED_EDGE('',*,*,#698,.T.);
#933=ORIENTED_EDGE('',*,*,#670,.T.);
#934=ORIENTED_EDGE('',*,*,#657,.T.);
#935=ORIENTED_EDGE('',*,*,#653,.T.);
#936=ORIENTED_EDGE('',*,*,#699,.T.);
#937=ORIENTED_EDGE('',*,*,#700,.T.);
#938=ORIENTED_EDGE('',*,*,#701,.F.);
#939=ORIENTED_EDGE('',*,*,#702,.F.);
#940=ORIENTED_EDGE('',*,*,#703,.T.);
#941=ORIENTED_EDGE('',*,*,#656,.T.);
#942=ORIENTED_EDGE('',*,*,#668,.T.);
#943=ORIENTED_EDGE('',*,*,#686,.T.);
#944=ORIENTED_EDGE('',*,*,#684,.T.);
#945=ORIENTED_EDGE('',*,*,#682,.T.);
#946=ORIENTED_EDGE('',*,*,#704,.F.);
#947=ORIENTED_EDGE('',*,*,#705,.F.);
#948=ORIENTED_EDGE('',*,*,#699,.F.);
#949=ORIENTED_EDGE('',*,*,#706,.T.);
#950=ORIENTED_EDGE('',*,*,#707,.T.);
#951=ORIENTED_EDGE('',*,*,#708,.T.);
#952=ORIENTED_EDGE('',*,*,#709,.T.);
#953=ORIENTED_EDGE('',*,*,#622,.T.);
#954=ORIENTED_EDGE('',*,*,#634,.T.);
#955=ORIENTED_EDGE('',*,*,#652,.T.);
#956=ORIENTED_EDGE('',*,*,#650,.T.);
#957=ORIENTED_EDGE('',*,*,#648,.T.);
#958=ORIENTED_EDGE('',*,*,#710,.F.);
#959=ORIENTED_EDGE('',*,*,#711,.T.);
#960=ORIENTED_EDGE('',*,*,#712,.T.);
#961=ORIENTED_EDGE('',*,*,#713,.T.);
#962=ORIENTED_EDGE('',*,*,#714,.F.);
#963=ORIENTED_EDGE('',*,*,#680,.T.);
#964=ORIENTED_EDGE('',*,*,#677,.T.);
#965=ORIENTED_EDGE('',*,*,#675,.T.);
#966=ORIENTED_EDGE('',*,*,#673,.T.);
#967=ORIENTED_EDGE('',*,*,#671,.T.);
#968=ORIENTED_EDGE('',*,*,#703,.F.);
#969=ORIENTED_EDGE('',*,*,#715,.T.);
#970=ORIENTED_EDGE('',*,*,#716,.T.);
#971=ORIENTED_EDGE('',*,*,#717,.T.);
#972=ORIENTED_EDGE('',*,*,#694,.F.);
#973=ORIENTED_EDGE('',*,*,#697,.F.);
#974=ORIENTED_EDGE('',*,*,#718,.F.);
#975=ORIENTED_EDGE('',*,*,#719,.F.);
#976=ORIENTED_EDGE('',*,*,#720,.F.);
#977=ORIENTED_EDGE('',*,*,#645,.T.);
#978=ORIENTED_EDGE('',*,*,#721,.T.);
#979=ORIENTED_EDGE('',*,*,#719,.T.);
#980=ORIENTED_EDGE('',*,*,#722,.F.);
#981=ORIENTED_EDGE('',*,*,#723,.F.);
#982=ORIENTED_EDGE('',*,*,#710,.T.);
#983=ORIENTED_EDGE('',*,*,#647,.T.);
#984=ORIENTED_EDGE('',*,*,#629,.T.);
#985=ORIENTED_EDGE('',*,*,#700,.F.);
#986=ORIENTED_EDGE('',*,*,#705,.T.);
#987=ORIENTED_EDGE('',*,*,#724,.F.);
#988=ORIENTED_EDGE('',*,*,#725,.F.);
#989=ORIENTED_EDGE('',*,*,#679,.T.);
#990=ORIENTED_EDGE('',*,*,#714,.T.);
#991=ORIENTED_EDGE('',*,*,#726,.F.);
#992=ORIENTED_EDGE('',*,*,#727,.F.);
#993=ORIENTED_EDGE('',*,*,#724,.T.);
#994=ORIENTED_EDGE('',*,*,#704,.T.);
#995=ORIENTED_EDGE('',*,*,#681,.T.);
#996=ORIENTED_EDGE('',*,*,#663,.T.);
#997=ORIENTED_EDGE('',*,*,#723,.T.);
#998=ORIENTED_EDGE('',*,*,#728,.F.);
#999=ORIENTED_EDGE('',*,*,#729,.T.);
#1000=ORIENTED_EDGE('',*,*,#711,.F.);
#1001=ORIENTED_EDGE('',*,*,#702,.T.);
#1002=ORIENTED_EDGE('',*,*,#730,.F.);
#1003=ORIENTED_EDGE('',*,*,#731,.T.);
#1004=ORIENTED_EDGE('',*,*,#715,.F.);
#1005=ORIENTED_EDGE('',*,*,#722,.T.);
#1006=ORIENTED_EDGE('',*,*,#718,.T.);
#1007=ORIENTED_EDGE('',*,*,#696,.T.);
#1008=ORIENTED_EDGE('',*,*,#732,.T.);
#1009=ORIENTED_EDGE('',*,*,#733,.T.);
#1010=ORIENTED_EDGE('',*,*,#730,.T.);
#1011=ORIENTED_EDGE('',*,*,#701,.T.);
#1012=ORIENTED_EDGE('',*,*,#725,.T.);
#1013=ORIENTED_EDGE('',*,*,#727,.T.);
#1014=ORIENTED_EDGE('',*,*,#734,.T.);
#1015=ORIENTED_EDGE('',*,*,#735,.T.);
#1016=ORIENTED_EDGE('',*,*,#728,.T.);
#1017=ORIENTED_EDGE('',*,*,#736,.T.);
#1018=ORIENTED_EDGE('',*,*,#689,.T.);
#1019=ORIENTED_EDGE('',*,*,#737,.T.);
#1020=ORIENTED_EDGE('',*,*,#738,.T.);
#1021=ORIENTED_EDGE('',*,*,#736,.F.);
#1022=ORIENTED_EDGE('',*,*,#739,.T.);
#1023=ORIENTED_EDGE('',*,*,#740,.F.);
#1024=ORIENTED_EDGE('',*,*,#690,.F.);
#1025=ORIENTED_EDGE('',*,*,#737,.F.);
#1026=ORIENTED_EDGE('',*,*,#688,.T.);
#1027=ORIENTED_EDGE('',*,*,#693,.F.);
#1028=ORIENTED_EDGE('',*,*,#741,.F.);
#1029=ORIENTED_EDGE('',*,*,#615,.T.);
#1030=ORIENTED_EDGE('',*,*,#742,.F.);
#1031=ORIENTED_EDGE('',*,*,#739,.F.);
#1032=ORIENTED_EDGE('',*,*,#738,.F.);
#1033=ORIENTED_EDGE('',*,*,#741,.T.);
#1034=ORIENTED_EDGE('',*,*,#692,.F.);
#1035=ORIENTED_EDGE('',*,*,#617,.T.);
#1036=ORIENTED_EDGE('',*,*,#595,.T.);
#1037=ORIENTED_EDGE('',*,*,#607,.T.);
#1038=ORIENTED_EDGE('',*,*,#691,.T.);
#1039=ORIENTED_EDGE('',*,*,#740,.T.);
#1040=ORIENTED_EDGE('',*,*,#742,.T.);
#1041=ORIENTED_EDGE('',*,*,#616,.T.);
#1042=ORIENTED_EDGE('',*,*,#613,.T.);
#1043=ORIENTED_EDGE('',*,*,#611,.T.);
#1044=ORIENTED_EDGE('',*,*,#609,.T.);
#1045=ORIENTED_EDGE('',*,*,#733,.F.);
#1046=ORIENTED_EDGE('',*,*,#743,.T.);
#1047=ORIENTED_EDGE('',*,*,#716,.F.);
#1048=ORIENTED_EDGE('',*,*,#731,.F.);
#1049=ORIENTED_EDGE('',*,*,#726,.T.);
#1050=ORIENTED_EDGE('',*,*,#713,.F.);
#1051=ORIENTED_EDGE('',*,*,#744,.F.);
#1052=ORIENTED_EDGE('',*,*,#734,.F.);
#1053=ORIENTED_EDGE('',*,*,#735,.F.);
#1054=ORIENTED_EDGE('',*,*,#744,.T.);
#1055=ORIENTED_EDGE('',*,*,#712,.F.);
#1056=ORIENTED_EDGE('',*,*,#729,.F.);
#1057=ORIENTED_EDGE('',*,*,#695,.T.);
#1058=ORIENTED_EDGE('',*,*,#717,.F.);
#1059=ORIENTED_EDGE('',*,*,#743,.F.);
#1060=ORIENTED_EDGE('',*,*,#732,.F.);
#1061=ORIENTED_EDGE('',*,*,#637,.T.);
#1062=ORIENTED_EDGE('',*,*,#698,.F.);
#1063=ORIENTED_EDGE('',*,*,#720,.T.);
#1064=ORIENTED_EDGE('',*,*,#721,.F.);
#1065=ORIENTED_EDGE('',*,*,#646,.T.);
#1066=ORIENTED_EDGE('',*,*,#643,.T.);
#1067=ORIENTED_EDGE('',*,*,#641,.T.);
#1068=ORIENTED_EDGE('',*,*,#639,.T.);
#1069=ORIENTED_EDGE('',*,*,#745,.F.);
#1070=ORIENTED_EDGE('',*,*,#746,.F.);
#1071=ORIENTED_EDGE('',*,*,#747,.F.);
#1072=ORIENTED_EDGE('',*,*,#748,.F.);
#1073=ORIENTED_EDGE('',*,*,#745,.T.);
#1074=ORIENTED_EDGE('',*,*,#749,.T.);
#1075=ORIENTED_EDGE('',*,*,#706,.F.);
#1076=ORIENTED_EDGE('',*,*,#750,.F.);
#1077=ORIENTED_EDGE('',*,*,#748,.T.);
#1078=ORIENTED_EDGE('',*,*,#751,.T.);
#1079=ORIENTED_EDGE('',*,*,#707,.F.);
#1080=ORIENTED_EDGE('',*,*,#749,.F.);
#1081=ORIENTED_EDGE('',*,*,#747,.T.);
#1082=ORIENTED_EDGE('',*,*,#752,.T.);
#1083=ORIENTED_EDGE('',*,*,#708,.F.);
#1084=ORIENTED_EDGE('',*,*,#751,.F.);
#1085=ORIENTED_EDGE('',*,*,#746,.T.);
#1086=ORIENTED_EDGE('',*,*,#750,.T.);
#1087=ORIENTED_EDGE('',*,*,#709,.F.);
#1088=ORIENTED_EDGE('',*,*,#752,.F.);
#1089=PLANE('',#1209);
#1090=PLANE('',#1210);
#1091=PLANE('',#1211);
#1092=PLANE('',#1212);
#1093=PLANE('',#1213);
#1094=PLANE('',#1214);
#1095=PLANE('',#1215);
#1096=PLANE('',#1216);
#1097=PLANE('',#1217);
#1098=PLANE('',#1218);
#1099=PLANE('',#1219);
#1100=PLANE('',#1220);
#1101=PLANE('',#1221);
#1102=PLANE('',#1222);
#1103=PLANE('',#1223);
#1104=PLANE('',#1224);
#1105=PLANE('',#1225);
#1106=PLANE('',#1226);
#1107=PLANE('',#1227);
#1108=PLANE('',#1228);
#1109=PLANE('',#1229);
#1110=PLANE('',#1230);
#1111=PLANE('',#1231);
#1112=PLANE('',#1232);
#1113=PLANE('',#1233);
#1114=PLANE('',#1234);
#1115=PLANE('',#1235);
#1116=PLANE('',#1236);
#1117=PLANE('',#1237);
#1118=PLANE('',#1238);
#1119=PLANE('',#1239);
#1120=PLANE('',#1240);
#1121=PLANE('',#1241);
#1122=PLANE('',#1242);
#1123=PLANE('',#1243);
#1124=PLANE('',#1245);
#1125=PLANE('',#1246);
#1126=PLANE('',#1247);
#1127=PLANE('',#1248);
#1128=PLANE('',#1249);
#1129=PLANE('',#1250);
#1130=PLANE('',#1251);
#1131=PLANE('',#1252);
#1132=PLANE('',#1253);
#1133=PLANE('',#1254);
#1134=PLANE('',#1255);
#1135=PLANE('',#1261);
#1136=PLANE('',#1262);
#1137=PLANE('',#1263);
#1138=PLANE('',#1264);
#1139=PLANE('',#1265);
#1140=PLANE('',#1266);
#1141=PLANE('',#1267);
#1142=PLANE('',#1268);
#1143=PLANE('',#1269);
#1144=PLANE('',#1270);
#1145=PLANE('',#1271);
#1146=PLANE('',#1272);
#1147=ADVANCED_FACE('',(#23),#1089,.F.);
#1148=ADVANCED_FACE('',(#24),#1090,.F.);
#1149=ADVANCED_FACE('',(#25),#1091,.F.);
#1150=ADVANCED_FACE('',(#26),#1092,.F.);
#1151=ADVANCED_FACE('',(#27),#1093,.F.);
#1152=ADVANCED_FACE('',(#28),#1094,.F.);
#1153=ADVANCED_FACE('',(#29),#1095,.F.);
#1154=ADVANCED_FACE('',(#30),#1096,.F.);
#1155=ADVANCED_FACE('',(#31),#1097,.F.);
#1156=ADVANCED_FACE('',(#32),#1098,.F.);
#1157=ADVANCED_FACE('',(#33),#1099,.F.);
#1158=ADVANCED_FACE('',(#34),#1100,.F.);
#1159=ADVANCED_FACE('',(#35),#1101,.F.);
#1160=ADVANCED_FACE('',(#36),#1102,.F.);
#1161=ADVANCED_FACE('',(#37),#1103,.F.);
#1162=ADVANCED_FACE('',(#38),#1104,.F.);
#1163=ADVANCED_FACE('',(#39),#1105,.F.);
#1164=ADVANCED_FACE('',(#40),#1106,.F.);
#1165=ADVANCED_FACE('',(#41),#1107,.F.);
#1166=ADVANCED_FACE('',(#42),#1108,.F.);
#1167=ADVANCED_FACE('',(#43),#1109,.F.);
#1168=ADVANCED_FACE('',(#44),#1110,.F.);
#1169=ADVANCED_FACE('',(#45),#1111,.F.);
#1170=ADVANCED_FACE('',(#46),#1112,.F.);
#1171=ADVANCED_FACE('',(#47),#1113,.F.);
#1172=ADVANCED_FACE('',(#48),#1114,.F.);
#1173=ADVANCED_FACE('',(#49),#1115,.F.);
#1174=ADVANCED_FACE('',(#50),#1116,.F.);
#1175=ADVANCED_FACE('',(#51),#1117,.F.);
#1176=ADVANCED_FACE('',(#52),#1118,.F.);
#1177=ADVANCED_FACE('',(#53),#1119,.F.);
#1178=ADVANCED_FACE('',(#54),#1120,.F.);
#1179=ADVANCED_FACE('',(#55),#1121,.F.);
#1180=ADVANCED_FACE('',(#56),#1122,.T.);
#1181=ADVANCED_FACE('',(#57),#1123,.T.);
#1182=ADVANCED_FACE('',(#58),#1124,.T.);
#1183=ADVANCED_FACE('',(#59),#1125,.T.);
#1184=ADVANCED_FACE('',(#60),#1126,.T.);
#1185=ADVANCED_FACE('',(#61,#17),#1127,.T.);
#1186=ADVANCED_FACE('',(#62),#1128,.T.);
#1187=ADVANCED_FACE('',(#63),#1129,.T.);
#1188=ADVANCED_FACE('',(#64),#1130,.T.);
#1189=ADVANCED_FACE('',(#65),#1131,.T.);
#1190=ADVANCED_FACE('',(#66),#1132,.F.);
#1191=ADVANCED_FACE('',(#67),#1133,.F.);
#1192=ADVANCED_FACE('',(#68,#18),#1134,.T.);
#1193=ADVANCED_FACE('',(#69),#15,.T.);
#1194=ADVANCED_FACE('',(#70),#16,.T.);
#1195=ADVANCED_FACE('',(#71),#1135,.T.);
#1196=ADVANCED_FACE('',(#72),#1136,.T.);
#1197=ADVANCED_FACE('',(#73),#1137,.F.);
#1198=ADVANCED_FACE('',(#74),#1138,.F.);
#1199=ADVANCED_FACE('',(#75),#1139,.F.);
#1200=ADVANCED_FACE('',(#76),#1140,.F.);
#1201=ADVANCED_FACE('',(#77),#1141,.T.);
#1202=ADVANCED_FACE('',(#78),#1142,.F.);
#1203=ADVANCED_FACE('',(#79),#1143,.T.);
#1204=ADVANCED_FACE('',(#80),#1144,.T.);
#1205=ADVANCED_FACE('',(#81),#1145,.T.);
#1206=ADVANCED_FACE('',(#82),#1146,.T.);
#1207=CLOSED_SHELL('',(#1147,#1148,#1149,#1150,#1151,#1152,#1153,#1154,
#1155,#1156,#1157,#1158,#1159,#1160,#1161,#1162,#1163,#1164,#1165,#1166,
#1167,#1168,#1169,#1170,#1171,#1172,#1173,#1174,#1175,#1176,#1177,#1178,
#1179,#1180,#1181,#1182,#1183,#1184,#1185,#1186,#1187,#1188,#1189,#1190,
#1191,#1192,#1193,#1194,#1195,#1196,#1197,#1198,#1199,#1200,#1201,#1202,
#1203,#1204,#1205,#1206));
#1208=AXIS2_PLACEMENT_3D('placement',#1567,#1273,#1274);
#1209=AXIS2_PLACEMENT_3D('',#1568,#1275,#1276);
#1210=AXIS2_PLACEMENT_3D('',#1577,#1281,#1282);
#1211=AXIS2_PLACEMENT_3D('',#1599,#1294,#1295);
#1212=AXIS2_PLACEMENT_3D('',#1605,#1299,#1300);
#1213=AXIS2_PLACEMENT_3D('',#1609,#1303,#1304);
#1214=AXIS2_PLACEMENT_3D('',#1611,#1306,#1307);
#1215=AXIS2_PLACEMENT_3D('',#1617,#1311,#1312);
#1216=AXIS2_PLACEMENT_3D('',#1621,#1315,#1316);
#1217=AXIS2_PLACEMENT_3D('',#1625,#1319,#1320);
#1218=AXIS2_PLACEMENT_3D('',#1629,#1323,#1324);
#1219=AXIS2_PLACEMENT_3D('',#1633,#1327,#1328);
#1220=AXIS2_PLACEMENT_3D('',#1637,#1331,#1332);
#1221=AXIS2_PLACEMENT_3D('',#1646,#1337,#1338);
#1222=AXIS2_PLACEMENT_3D('',#1668,#1350,#1351);
#1223=AXIS2_PLACEMENT_3D('',#1672,#1354,#1355);
#1224=AXIS2_PLACEMENT_3D('',#1678,#1359,#1360);
#1225=AXIS2_PLACEMENT_3D('',#1682,#1363,#1364);
#1226=AXIS2_PLACEMENT_3D('',#1686,#1367,#1368);
#1227=AXIS2_PLACEMENT_3D('',#1690,#1371,#1372);
#1228=AXIS2_PLACEMENT_3D('',#1694,#1375,#1376);
#1229=AXIS2_PLACEMENT_3D('',#1700,#1380,#1381);
#1230=AXIS2_PLACEMENT_3D('',#1704,#1384,#1385);
#1231=AXIS2_PLACEMENT_3D('',#1706,#1387,#1388);
#1232=AXIS2_PLACEMENT_3D('',#1715,#1393,#1394);
#1233=AXIS2_PLACEMENT_3D('',#1737,#1406,#1407);
#1234=AXIS2_PLACEMENT_3D('',#1741,#1410,#1411);
#1235=AXIS2_PLACEMENT_3D('',#1747,#1415,#1416);
#1236=AXIS2_PLACEMENT_3D('',#1751,#1419,#1420);
#1237=AXIS2_PLACEMENT_3D('',#1755,#1423,#1424);
#1238=AXIS2_PLACEMENT_3D('',#1759,#1427,#1428);
#1239=AXIS2_PLACEMENT_3D('',#1763,#1431,#1432);
#1240=AXIS2_PLACEMENT_3D('',#1769,#1436,#1437);
#1241=AXIS2_PLACEMENT_3D('',#1773,#1440,#1441);
#1242=AXIS2_PLACEMENT_3D('',#1775,#1443,#1444);
#1243=AXIS2_PLACEMENT_3D('',#1785,#1450,#1451);
#1244=AXIS2_PLACEMENT_3D('',#1788,#1453,#1454);
#1245=AXIS2_PLACEMENT_3D('',#1789,#1455,#1456);
#1246=AXIS2_PLACEMENT_3D('',#1799,#1462,#1463);
#1247=AXIS2_PLACEMENT_3D('',#1809,#1469,#1470);
#1248=AXIS2_PLACEMENT_3D('',#1813,#1473,#1474);
#1249=AXIS2_PLACEMENT_3D('',#1836,#1487,#1488);
#1250=AXIS2_PLACEMENT_3D('',#1842,#1492,#1493);
#1251=AXIS2_PLACEMENT_3D('',#1847,#1497,#1498);
#1252=AXIS2_PLACEMENT_3D('',#1851,#1501,#1502);
#1253=AXIS2_PLACEMENT_3D('',#1855,#1505,#1506);
#1254=AXIS2_PLACEMENT_3D('',#1859,#1509,#1510);
#1255=AXIS2_PLACEMENT_3D('',#1863,#1513,#1514);
#1256=AXIS2_PLACEMENT_3D('',#1871,#1519,#1520);
#1257=AXIS2_PLACEMENT_3D('',#1873,#1521,#1522);
#1258=AXIS2_PLACEMENT_3D('',#1875,#1524,#1525);
#1259=AXIS2_PLACEMENT_3D('',#1878,#1527,#1528);
#1260=AXIS2_PLACEMENT_3D('',#1879,#1529,#1530);
#1261=AXIS2_PLACEMENT_3D('',#1881,#1532,#1533);
#1262=AXIS2_PLACEMENT_3D('',#1883,#1535,#1536);
#1263=AXIS2_PLACEMENT_3D('',#1884,#1537,#1538);
#1264=AXIS2_PLACEMENT_3D('',#1886,#1540,#1541);
#1265=AXIS2_PLACEMENT_3D('',#1888,#1543,#1544);
#1266=AXIS2_PLACEMENT_3D('',#1889,#1545,#1546);
#1267=AXIS2_PLACEMENT_3D('',#1890,#1547,#1548);
#1268=AXIS2_PLACEMENT_3D('',#1891,#1549,#1550);
#1269=AXIS2_PLACEMENT_3D('',#1900,#1555,#1556);
#1270=AXIS2_PLACEMENT_3D('',#1903,#1559,#1560);
#1271=AXIS2_PLACEMENT_3D('',#1905,#1562,#1563);
#1272=AXIS2_PLACEMENT_3D('',#1907,#1565,#1566);
#1273=DIRECTION('axis',(0.,0.,1.));
#1274=DIRECTION('refdir',(1.,0.,0.));
#1275=DIRECTION('center_axis',(-1.,-1.86313872547905E-17,0.));
#1276=DIRECTION('ref_axis',(-2.22044604925031E-17,1.,0.));
#1277=DIRECTION('',(0.,0.,1.));
#1278=DIRECTION('',(-1.86313872547905E-17,1.,0.));
#1279=DIRECTION('',(0.,0.,-1.));
#1280=DIRECTION('',(-1.86313872547905E-17,1.,0.));
#1281=DIRECTION('center_axis',(0.,0.,-1.));
#1282=DIRECTION('ref_axis',(-1.,0.,0.));
#1283=DIRECTION('',(-1.,-1.86313872547905E-17,0.));
#1284=DIRECTION('',(1.86313872547905E-17,-1.,0.));
#1285=DIRECTION('',(-1.,-4.62720597104853E-16,0.));
#1286=DIRECTION('',(1.86313872547905E-17,-1.,0.));
#1287=DIRECTION('',(1.,4.62720597104853E-16,0.));
#1288=DIRECTION('',(1.86313872547905E-17,-1.,0.));
#1289=DIRECTION('',(1.,1.86313872547905E-17,0.));
#1290=DIRECTION('',(-1.86313872547905E-17,1.,0.));
#1291=DIRECTION('',(1.,1.86313872547905E-17,0.));
#1292=DIRECTION('',(-1.86313872547905E-17,1.,0.));
#1293=DIRECTION('',(-1.,-6.84765202029884E-16,0.));
#1294=DIRECTION('center_axis',(-1.86313872547905E-17,1.,0.));
#1295=DIRECTION('ref_axis',(1.,2.22044604925031E-17,0.));
#1296=DIRECTION('',(1.,1.86313872547905E-17,0.));
#1297=DIRECTION('',(0.,0.,-1.));
#1298=DIRECTION('',(0.,0.,-1.));
#1299=DIRECTION('center_axis',(-1.,-1.86313872547905E-17,0.));
#1300=DIRECTION('ref_axis',(0.,1.,0.));
#1301=DIRECTION('',(-1.86313872547905E-17,1.,0.));
#1302=DIRECTION('',(0.,0.,-1.));
#1303=DIRECTION('center_axis',(6.84765202029884E-16,-1.,0.));
#1304=DIRECTION('ref_axis',(-1.,-6.88338275267597E-16,0.));
#1305=DIRECTION('',(-1.,-6.84765202029884E-16,0.));
#1306=DIRECTION('center_axis',(1.,1.86313872547905E-17,0.));
#1307=DIRECTION('ref_axis',(2.22044604925031E-17,-1.,0.));
#1308=DIRECTION('',(0.,0.,-1.));
#1309=DIRECTION('',(1.86313872547905E-17,-1.,0.));
#1310=DIRECTION('',(0.,0.,-1.));
#1311=DIRECTION('center_axis',(4.62720597104853E-16,-1.,0.));
#1312=DIRECTION('ref_axis',(-1.,-4.66293670342566E-16,0.));
#1313=DIRECTION('',(-1.,-4.62720597104853E-16,0.));
#1314=DIRECTION('',(0.,0.,-1.));
#1315=DIRECTION('center_axis',(1.,1.86313872547905E-17,0.));
#1316=DIRECTION('ref_axis',(0.,-1.,0.));
#1317=DIRECTION('',(1.86313872547905E-17,-1.,0.));
#1318=DIRECTION('',(0.,0.,-1.));
#1319=DIRECTION('center_axis',(-4.62720597104853E-16,1.,0.));
#1320=DIRECTION('ref_axis',(1.,4.66293670342566E-16,0.));
#1321=DIRECTION('',(1.,4.62720597104853E-16,0.));
#1322=DIRECTION('',(0.,0.,-1.));
#1323=DIRECTION('center_axis',(1.,1.86313872547905E-17,0.));
#1324=DIRECTION('ref_axis',(2.22044604925031E-17,-1.,0.));
#1325=DIRECTION('',(0.,0.,1.));
#1326=DIRECTION('',(1.86313872547905E-17,-1.,0.));
#1327=DIRECTION('center_axis',(-1.,-1.86313872547905E-17,0.));
#1328=DIRECTION('ref_axis',(-2.22044604925031E-17,1.,0.));
#1329=DIRECTION('',(0.,0.,-1.));
#1330=DIRECTION('',(-1.86313872547905E-17,1.,0.));
#1331=DIRECTION('center_axis',(-1.,-1.86313872547905E-17,0.));
#1332=DIRECTION('ref_axis',(0.,1.,0.));
#1333=DIRECTION('',(0.,0.,1.));
#1334=DIRECTION('',(-1.86313872547905E-17,1.,0.));
#1335=DIRECTION('',(0.,0.,-1.));
#1336=DIRECTION('',(-1.86313872547905E-17,1.,-2.27122750029083E-33));
#1337=DIRECTION('center_axis',(0.,0.,-1.));
#1338=DIRECTION('ref_axis',(-1.,0.,0.));
#1339=DIRECTION('',(-1.,0.,0.));
#1340=DIRECTION('',(1.86313872547905E-17,-1.,0.));
#1341=DIRECTION('',(-1.,-4.62720597104853E-16,0.));
#1342=DIRECTION('',(1.86313872547905E-17,-1.,0.));
#1343=DIRECTION('',(1.,4.62720597104853E-16,0.));
#1344=DIRECTION('',(1.86313872547905E-17,-1.,0.));
#1345=DIRECTION('',(1.,0.,0.));
#1346=DIRECTION('',(-1.86313872547905E-17,1.,0.));
#1347=DIRECTION('',(1.,1.86313872547905E-17,0.));
#1348=DIRECTION('',(-1.86313872547905E-17,1.,0.));
#1349=DIRECTION('',(-1.,-6.84765202029884E-16,0.));
#1350=DIRECTION('center_axis',(6.84765202029884E-16,-1.,0.));
#1351=DIRECTION('ref_axis',(-1.,-6.88338275267597E-16,0.));
#1352=DIRECTION('',(-1.,-6.84765202029884E-16,-2.58014098499072E-32));
#1353=DIRECTION('',(0.,0.,-1.));
#1354=DIRECTION('center_axis',(1.,1.86313872547905E-17,0.));
#1355=DIRECTION('ref_axis',(0.,-1.,0.));
#1356=DIRECTION('',(0.,0.,-1.));
#1357=DIRECTION('',(1.86313872547905E-17,-1.,2.27122750029083E-33));
#1358=DIRECTION('',(0.,0.,-1.));
#1359=DIRECTION('center_axis',(4.62720597104853E-16,-1.,0.));
#1360=DIRECTION('ref_axis',(-1.,-4.66293670342566E-16,0.));
#1361=DIRECTION('',(-1.,-4.62720597104853E-16,-2.58014098499072E-32));
#1362=DIRECTION('',(0.,0.,-1.));
#1363=DIRECTION('center_axis',(1.,1.86313872547905E-17,0.));
#1364=DIRECTION('ref_axis',(0.,-1.,0.));
#1365=DIRECTION('',(1.86313872547905E-17,-1.,2.27122750029083E-33));
#1366=DIRECTION('',(0.,0.,-1.));
#1367=DIRECTION('center_axis',(-4.62720597104853E-16,1.,0.));
#1368=DIRECTION('ref_axis',(1.,4.66293670342566E-16,0.));
#1369=DIRECTION('',(1.,4.62720597104853E-16,2.58014098499072E-32));
#1370=DIRECTION('',(0.,0.,-1.));
#1371=DIRECTION('center_axis',(1.,1.86313872547905E-17,0.));
#1372=DIRECTION('ref_axis',(0.,-1.,0.));
#1373=DIRECTION('',(0.,0.,1.));
#1374=DIRECTION('',(1.86313872547905E-17,-1.,2.27122750029083E-33));
#1375=DIRECTION('center_axis',(-1.,-1.86313872547905E-17,0.));
#1376=DIRECTION('ref_axis',(0.,1.,0.));
#1377=DIRECTION('',(0.,0.,-1.));
#1378=DIRECTION('',(-1.86313872547905E-17,1.,-2.27122750029083E-33));
#1379=DIRECTION('',(0.,0.,-1.));
#1380=DIRECTION('center_axis',(-1.86313872547905E-17,1.,0.));
#1381=DIRECTION('ref_axis',(1.,2.22044604925031E-17,0.));
#1382=DIRECTION('',(1.,1.86313872547905E-17,2.58014098499072E-32));
#1383=DIRECTION('',(0.,0.,-1.));
#1384=DIRECTION('center_axis',(-1.,-1.86313872547905E-17,0.));
#1385=DIRECTION('ref_axis',(0.,1.,0.));
#1386=DIRECTION('',(-1.86313872547905E-17,1.,-2.27122750029083E-33));
#1387=DIRECTION('center_axis',(-1.,-1.86313872547905E-17,0.));
#1388=DIRECTION('ref_axis',(0.,1.,0.));
#1389=DIRECTION('',(0.,0.,1.));
#1390=DIRECTION('',(-1.86313872547905E-17,1.,0.));
#1391=DIRECTION('',(0.,0.,-1.));
#1392=DIRECTION('',(-1.86313872547905E-17,1.,-2.27122750029083E-33));
#1393=DIRECTION('center_axis',(0.,0.,-1.));
#1394=DIRECTION('ref_axis',(-1.,0.,0.));
#1395=DIRECTION('',(-1.,0.,0.));
#1396=DIRECTION('',(1.86313872547905E-17,-1.,0.));
#1397=DIRECTION('',(-1.,-4.62720597104853E-16,0.));
#1398=DIRECTION('',(1.86313872547905E-17,-1.,0.));
#1399=DIRECTION('',(1.,4.62720597104853E-16,0.));
#1400=DIRECTION('',(1.86313872547905E-17,-1.,0.));
#1401=DIRECTION('',(1.,0.,0.));
#1402=DIRECTION('',(-1.86313872547905E-17,1.,0.));
#1403=DIRECTION('',(1.,1.86313872547905E-17,0.));
#1404=DIRECTION('',(-1.86313872547905E-17,1.,0.));
#1405=DIRECTION('',(-1.,-6.84765202029884E-16,0.));
#1406=DIRECTION('center_axis',(6.84765202029884E-16,-1.,0.));
#1407=DIRECTION('ref_axis',(-1.,-6.88338275267597E-16,0.));
#1408=DIRECTION('',(-1.,-6.84765202029884E-16,-2.58014098499072E-32));
#1409=DIRECTION('',(0.,0.,-1.));
#1410=DIRECTION('center_axis',(1.,1.86313872547905E-17,0.));
#1411=DIRECTION('ref_axis',(0.,-1.,0.));
#1412=DIRECTION('',(0.,0.,-1.));
#1413=DIRECTION('',(1.86313872547905E-17,-1.,2.27122750029083E-33));
#1414=DIRECTION('',(0.,0.,-1.));
#1415=DIRECTION('center_axis',(4.62720597104853E-16,-1.,0.));
#1416=DIRECTION('ref_axis',(-1.,-4.66293670342566E-16,0.));
#1417=DIRECTION('',(-1.,-4.62720597104853E-16,-2.58014098499072E-32));
#1418=DIRECTION('',(0.,0.,-1.));
#1419=DIRECTION('center_axis',(1.,1.86313872547905E-17,0.));
#1420=DIRECTION('ref_axis',(0.,-1.,0.));
#1421=DIRECTION('',(1.86313872547905E-17,-1.,2.27122750029083E-33));
#1422=DIRECTION('',(0.,0.,-1.));
#1423=DIRECTION('center_axis',(-4.62720597104853E-16,1.,0.));
#1424=DIRECTION('ref_axis',(1.,4.66293670342566E-16,0.));
#1425=DIRECTION('',(1.,4.62720597104853E-16,2.58014098499072E-32));
#1426=DIRECTION('',(0.,0.,-1.));
#1427=DIRECTION('center_axis',(1.,1.86313872547905E-17,0.));
#1428=DIRECTION('ref_axis',(0.,-1.,0.));
#1429=DIRECTION('',(0.,0.,1.));
#1430=DIRECTION('',(1.86313872547905E-17,-1.,2.27122750029083E-33));
#1431=DIRECTION('center_axis',(-1.,-1.86313872547905E-17,0.));
#1432=DIRECTION('ref_axis',(0.,1.,0.));
#1433=DIRECTION('',(0.,0.,-1.));
#1434=DIRECTION('',(-1.86313872547905E-17,1.,-2.27122750029083E-33));
#1435=DIRECTION('',(0.,0.,-1.));
#1436=DIRECTION('center_axis',(-1.86313872547905E-17,1.,0.));
#1437=DIRECTION('ref_axis',(1.,2.22044604925031E-17,0.));
#1438=DIRECTION('',(1.,1.86313872547905E-17,2.58014098499072E-32));
#1439=DIRECTION('',(0.,0.,-1.));
#1440=DIRECTION('center_axis',(-1.,-1.86313872547905E-17,0.));
#1441=DIRECTION('ref_axis',(0.,1.,0.));
#1442=DIRECTION('',(-1.86313872547905E-17,1.,-2.27122750029083E-33));
#1443=DIRECTION('center_axis',(1.86313872547905E-17,-1.,0.));
#1444=DIRECTION('ref_axis',(1.,0.,0.));
#1445=DIRECTION('',(1.,1.86313872547905E-17,0.));
#1446=DIRECTION('',(0.,0.,1.));
#1447=DIRECTION('',(-1.,-1.86313872547905E-17,0.));
#1448=DIRECTION('',(0.,0.,1.));
#1449=DIRECTION('',(1.,1.86313872547905E-17,0.));
#1450=DIRECTION('center_axis',(0.,0.,1.));
#1451=DIRECTION('ref_axis',(1.,0.,0.));
#1452=DIRECTION('',(-1.,-1.86313872547905E-17,0.));
#1453=DIRECTION('center_axis',(0.,0.,1.));
#1454=DIRECTION('ref_axis',(0.699854212223765,-0.714285714285715,0.));
#1455=DIRECTION('center_axis',(0.,-1.,0.));
#1456=DIRECTION('ref_axis',(0.,0.,-1.));
#1457=DIRECTION('',(-1.,-1.86313872547905E-17,0.));
#1458=DIRECTION('',(-0.298274993135947,0.,0.95447997803503));
#1459=DIRECTION('',(-1.,0.,0.));
#1460=DIRECTION('',(0.,0.,1.));
#1461=DIRECTION('',(-1.,-1.86313872547905E-17,0.));
#1462=DIRECTION('center_axis',(0.,-1.,0.));
#1463=DIRECTION('ref_axis',(0.,0.,-1.));
#1464=DIRECTION('',(-1.,-1.86313872547905E-17,0.));
#1465=DIRECTION('',(0.,0.,-1.));
#1466=DIRECTION('',(-1.,0.,0.));
#1467=DIRECTION('',(-0.298274993135947,0.,-0.95447997803503));
#1468=DIRECTION('',(-1.,-1.86313872547905E-17,0.));
#1469=DIRECTION('center_axis',(-2.58014098499072E-32,2.27122750029083E-33,
1.));
#1470=DIRECTION('ref_axis',(1.,0.,0.));
#1471=DIRECTION('',(1.,1.86313872547905E-17,0.));
#1472=DIRECTION('',(0.,1.,0.));
#1473=DIRECTION('center_axis',(-2.58014098499072E-32,2.27122750029083E-33,
1.));
#1474=DIRECTION('ref_axis',(1.,0.,0.));
#1475=DIRECTION('',(1.,0.,0.));
#1476=DIRECTION('',(-1.2335811384724E-16,1.,0.));
#1477=DIRECTION('',(-1.,-1.20024110770287E-16,0.));
#1478=DIRECTION('',(2.46716227694479E-16,-1.,0.));
#1479=DIRECTION('',(1.,1.86313872547905E-17,0.));
#1480=DIRECTION('',(-2.37653231103822E-16,1.,-2.27122750029084E-33));
#1481=DIRECTION('',(1.,1.48232909520095E-16,2.58014098499072E-32));
#1482=DIRECTION('',(1.48533269439889E-16,-1.,2.27122750029084E-33));
#1483=DIRECTION('',(1.,1.86313872547905E-17,0.));
#1484=DIRECTION('',(1.48533269439889E-16,-1.,2.27122750029084E-33));
#1485=DIRECTION('',(-1.,-1.48232909520095E-17,-2.58014098499072E-32));
#1486=DIRECTION('',(-2.37653231103822E-16,1.,-2.27122750029084E-33));
#1487=DIRECTION('center_axis',(1.,0.,0.));
#1488=DIRECTION('ref_axis',(0.,0.,-1.));
#1489=DIRECTION('',(0.,-1.,0.));
#1490=DIRECTION('',(0.,0.,-1.));
#1491=DIRECTION('',(0.,1.,0.));
#1492=DIRECTION('center_axis',(0.,1.,0.));
#1493=DIRECTION('ref_axis',(0.,0.,1.));
#1494=DIRECTION('',(1.,1.86313872547905E-17,0.));
#1495=DIRECTION('',(1.,0.,0.));
#1496=DIRECTION('',(0.298274993135947,0.,-0.95447997803503));
#1497=DIRECTION('center_axis',(-1.,0.,0.));
#1498=DIRECTION('ref_axis',(0.,0.,1.));
#1499=DIRECTION('',(0.,0.,1.));
#1500=DIRECTION('',(0.,1.,0.));
#1501=DIRECTION('center_axis',(0.,1.,0.));
#1502=DIRECTION('ref_axis',(0.,0.,1.));
#1503=DIRECTION('',(0.298274993135947,0.,0.95447997803503));
#1504=DIRECTION('',(1.,0.,0.));
#1505=DIRECTION('center_axis',(-0.95447997803503,-2.2683525080393E-16,-0.298274993135947));
#1506=DIRECTION('ref_axis',(-0.298274993135947,0.,0.95447997803503));
#1507=DIRECTION('',(2.37653231103822E-16,-1.,0.));
#1508=DIRECTION('',(-0.280827978150866,0.336993573781038,0.898649530082769));
#1509=DIRECTION('center_axis',(0.95447997803503,1.41772031752456E-16,-0.298274993135947));
#1510=DIRECTION('ref_axis',(-0.298274993135947,0.,-0.95447997803503));
#1511=DIRECTION('',(-1.48533269439889E-16,1.,0.));
#1512=DIRECTION('',(0.280827978150865,-0.336993573781038,0.898649530082769));
#1513=DIRECTION('center_axis',(0.,0.,1.));
#1514=DIRECTION('ref_axis',(1.,0.,0.));
#1515=DIRECTION('',(2.37653231103822E-16,-1.,0.));
#1516=DIRECTION('',(1.,1.48232909520095E-17,0.));
#1517=DIRECTION('',(-1.48533269439889E-16,1.,0.));
#1518=DIRECTION('',(-1.,-1.48232909520095E-16,0.));
#1519=DIRECTION('center_axis',(0.,0.,-1.));
#1520=DIRECTION('ref_axis',(-0.699854212223766,0.714285714285714,0.));
#1521=DIRECTION('center_axis',(0.,0.,-1.));
#1522=DIRECTION('ref_axis',(0.699854212223765,-0.714285714285715,0.));
#1523=DIRECTION('',(1.,1.86313872547905E-17,0.));
#1524=DIRECTION('center_axis',(0.,0.,1.));
#1525=DIRECTION('ref_axis',(-0.699854212223766,0.714285714285714,0.));
#1526=DIRECTION('',(0.,0.,1.));
#1527=DIRECTION('center_axis',(0.,0.,1.));
#1528=DIRECTION('ref_axis',(-0.699854212223766,0.714285714285714,0.));
#1529=DIRECTION('center_axis',(0.,0.,1.));
#1530=DIRECTION('ref_axis',(0.699854212223765,-0.714285714285715,0.));
#1531=DIRECTION('',(0.,0.,1.));
#1532=DIRECTION('center_axis',(-1.86313872547905E-17,1.,0.));
#1533=DIRECTION('ref_axis',(-1.,0.,0.));
#1534=DIRECTION('',(-1.,-1.86313872547905E-17,0.));
#1535=DIRECTION('center_axis',(0.,0.,1.));
#1536=DIRECTION('ref_axis',(1.,0.,0.));
#1537=DIRECTION('center_axis',(1.38794798259617E-17,-0.936329177569045,
-0.351123441588392));
#1538=DIRECTION('ref_axis',(0.,0.351123441588392,-0.936329177569045));
#1539=DIRECTION('',(0.280827978150866,0.336993573781038,-0.898649530082769));
#1540=DIRECTION('center_axis',(0.95447997803503,1.41772031752456E-16,-0.298274993135947));
#1541=DIRECTION('ref_axis',(-0.298274993135947,0.,-0.95447997803503));
#1542=DIRECTION('',(0.280827978150865,0.336993573781038,0.898649530082769));
#1543=DIRECTION('center_axis',(-1.38794798259617E-16,0.936329177569045,
-0.351123441588392));
#1544=DIRECTION('ref_axis',(0.,0.351123441588392,0.936329177569045));
#1545=DIRECTION('center_axis',(-0.95447997803503,-2.2683525080393E-16,-0.298274993135947));
#1546=DIRECTION('ref_axis',(-0.298274993135947,0.,0.95447997803503));
#1547=DIRECTION('center_axis',(-2.58014098499072E-32,2.27122750029083E-33,
1.));
#1548=DIRECTION('ref_axis',(1.,0.,0.));
#1549=DIRECTION('center_axis',(0.,0.,1.));
#1550=DIRECTION('ref_axis',(1.,0.,0.));
#1551=DIRECTION('',(1.,0.,0.));
#1552=DIRECTION('',(3.70074341541719E-16,-1.,0.));
#1553=DIRECTION('',(-1.,-1.38777878078145E-16,0.));
#1554=DIRECTION('',(0.,1.,0.));
#1555=DIRECTION('center_axis',(1.38794798259617E-17,-0.936329177569045,
-0.351123441588392));
#1556=DIRECTION('ref_axis',(0.,0.351123441588392,-0.936329177569045));
#1557=DIRECTION('',(0.280827978150865,-0.336993573781038,0.898649530082769));
#1558=DIRECTION('',(-0.280827978150866,-0.336993573781038,0.898649530082769));
#1559=DIRECTION('center_axis',(0.95447997803503,1.41772031752456E-16,-0.298274993135947));
#1560=DIRECTION('ref_axis',(-0.298274993135947,0.,-0.95447997803503));
#1561=DIRECTION('',(0.280827978150865,0.336993573781038,0.898649530082769));
#1562=DIRECTION('center_axis',(-1.38794798259617E-16,0.936329177569045,
-0.351123441588392));
#1563=DIRECTION('ref_axis',(0.,0.351123441588392,0.936329177569045));
#1564=DIRECTION('',(-0.280827978150866,0.336993573781038,0.898649530082769));
#1565=DIRECTION('center_axis',(-0.95447997803503,-2.2683525080393E-16,-0.298274993135947));
#1566=DIRECTION('ref_axis',(-0.298274993135947,0.,0.95447997803503));
#1567=CARTESIAN_POINT('',(0.,0.,0.));
#1568=CARTESIAN_POINT('Origin',(-0.5,-3.,8.));
#1569=CARTESIAN_POINT('',(-0.5,-2.5,3.));
#1570=CARTESIAN_POINT('',(-0.5,-2.5,8.));
#1571=CARTESIAN_POINT('',(-0.5,-2.5,4.75));
#1572=CARTESIAN_POINT('',(-0.5,-0.499999999999998,3.));
#1573=CARTESIAN_POINT('',(-0.5,-3.,3.));
#1574=CARTESIAN_POINT('',(-0.5,-0.499999999999998,8.));
#1575=CARTESIAN_POINT('',(-0.5,-0.499999999999998,8.));
#1576=CARTESIAN_POINT('',(-0.5,-1.5,8.));
#1577=CARTESIAN_POINT('Origin',(-1.38777878078145E-16,1.38777878078145E-15,
3.));
#1578=CARTESIAN_POINT('',(0.500000000000001,-2.5,3.));
#1579=CARTESIAN_POINT('',(-1.22474487139159,-2.5,3.));
#1580=CARTESIAN_POINT('',(0.5,-0.499999999999998,3.));
#1581=CARTESIAN_POINT('',(0.5,-0.499999999999998,3.));
#1582=CARTESIAN_POINT('',(3.,-0.499999999999997,3.));
#1583=CARTESIAN_POINT('',(3.,-0.499999999999997,3.));
#1584=CARTESIAN_POINT('',(3.,0.500000000000003,3.));
#1585=CARTESIAN_POINT('',(3.,0.500000000000003,3.));
#1586=CARTESIAN_POINT('',(0.5,0.500000000000002,3.));
#1587=CARTESIAN_POINT('',(0.5,0.500000000000002,3.));
#1588=CARTESIAN_POINT('',(0.5,2.5,3.));
#1589=CARTESIAN_POINT('',(0.5,3.,3.));
#1590=CARTESIAN_POINT('',(-0.500000000000001,2.5,3.));
#1591=CARTESIAN_POINT('',(1.22474487139159,2.5,3.));
#1592=CARTESIAN_POINT('',(-0.5,0.5,3.));
#1593=CARTESIAN_POINT('',(-0.5,0.5,3.));
#1594=CARTESIAN_POINT('',(-3.,0.5,3.));
#1595=CARTESIAN_POINT('',(-3.,0.5,3.));
#1596=CARTESIAN_POINT('',(-3.,-0.5,3.));
#1597=CARTESIAN_POINT('',(-3.,-0.5,3.));
#1598=CARTESIAN_POINT('',(-0.5,-0.499999999999998,3.));
#1599=CARTESIAN_POINT('Origin',(-3.,0.5,8.));
#1600=CARTESIAN_POINT('',(-3.,0.5,8.));
#1601=CARTESIAN_POINT('',(-0.5,0.5,8.));
#1602=CARTESIAN_POINT('',(-1.5,0.5,8.));
#1603=CARTESIAN_POINT('',(-3.,0.5,8.));
#1604=CARTESIAN_POINT('',(-0.5,0.5,8.));
#1605=CARTESIAN_POINT('Origin',(-3.,-0.5,8.));
#1606=CARTESIAN_POINT('',(-3.,-0.5,8.));
#1607=CARTESIAN_POINT('',(-3.,-0.249999999999999,8.));
#1608=CARTESIAN_POINT('',(-3.,-0.5,8.));
#1609=CARTESIAN_POINT('Origin',(-0.5,-0.499999999999998,8.));
#1610=CARTESIAN_POINT('',(-0.25,-0.499999999999998,8.));
#1611=CARTESIAN_POINT('Origin',(0.5,-0.499999999999998,8.));
#1612=CARTESIAN_POINT('',(0.500000000000001,-2.5,8.));
#1613=CARTESIAN_POINT('',(0.5,-2.5,4.75));
#1614=CARTESIAN_POINT('',(0.5,-0.499999999999998,8.));
#1615=CARTESIAN_POINT('',(0.5,-0.249999999999998,8.));
#1616=CARTESIAN_POINT('',(0.5,-0.499999999999998,8.));
#1617=CARTESIAN_POINT('Origin',(3.,-0.499999999999997,8.));
#1618=CARTESIAN_POINT('',(3.,-0.499999999999997,8.));
#1619=CARTESIAN_POINT('',(1.5,-0.499999999999997,8.));
#1620=CARTESIAN_POINT('',(3.,-0.499999999999997,8.));
#1621=CARTESIAN_POINT('Origin',(3.,0.500000000000003,8.));
#1622=CARTESIAN_POINT('',(3.,0.500000000000003,8.));
#1623=CARTESIAN_POINT('',(3.,0.250000000000002,8.));
#1624=CARTESIAN_POINT('',(3.,0.500000000000003,8.));
#1625=CARTESIAN_POINT('Origin',(0.5,0.500000000000002,8.));
#1626=CARTESIAN_POINT('',(0.5,0.500000000000002,8.));
#1627=CARTESIAN_POINT('',(0.25,0.500000000000001,8.));
#1628=CARTESIAN_POINT('',(0.5,0.500000000000002,8.));
#1629=CARTESIAN_POINT('Origin',(0.5,3.,8.));
#1630=CARTESIAN_POINT('',(0.5,2.5,8.));
#1631=CARTESIAN_POINT('',(0.5,2.5,4.75));
#1632=CARTESIAN_POINT('',(0.5,1.5,8.));
#1633=CARTESIAN_POINT('Origin',(-0.5,0.5,8.));
#1634=CARTESIAN_POINT('',(-0.500000000000001,2.5,8.));
#1635=CARTESIAN_POINT('',(-0.5,2.5,4.75));
#1636=CARTESIAN_POINT('',(-0.5,0.250000000000001,8.));
#1637=CARTESIAN_POINT('Origin',(-12.5,-3.,8.));
#1638=CARTESIAN_POINT('',(-12.5,-2.5,3.));
#1639=CARTESIAN_POINT('',(-12.5,-2.5,8.));
#1640=CARTESIAN_POINT('',(-12.5,-2.5,6.49231661131715));
#1641=CARTESIAN_POINT('',(-12.5,-0.499999999999998,3.));
#1642=CARTESIAN_POINT('',(-12.5,-0.499999999999998,3.));
#1643=CARTESIAN_POINT('',(-12.5,-0.499999999999998,8.));
#1644=CARTESIAN_POINT('',(-12.5,-0.499999999999998,8.));
#1645=CARTESIAN_POINT('',(-12.5,-1.5,8.));
#1646=CARTESIAN_POINT('Origin',(-12.,1.2490009027033E-15,3.));
#1647=CARTESIAN_POINT('',(-11.5,-2.5,3.));
#1648=CARTESIAN_POINT('',(-12.1419585246081,-2.5,3.));
#1649=CARTESIAN_POINT('',(-11.5,-0.499999999999998,3.));
#1650=CARTESIAN_POINT('',(-11.5,-3.,3.));
#1651=CARTESIAN_POINT('',(-9.,-0.499999999999997,3.));
#1652=CARTESIAN_POINT('',(-11.5,-0.499999999999998,3.));
#1653=CARTESIAN_POINT('',(-9.,0.500000000000003,3.));
#1654=CARTESIAN_POINT('',(-9.,-0.499999999999997,3.));
#1655=CARTESIAN_POINT('',(-11.5,0.500000000000002,3.));
#1656=CARTESIAN_POINT('',(-9.,0.500000000000003,3.));
#1657=CARTESIAN_POINT('',(-11.5,2.5,3.));
#1658=CARTESIAN_POINT('',(-11.5,0.500000000000002,3.));
#1659=CARTESIAN_POINT('',(-12.5,2.5,3.));
#1660=CARTESIAN_POINT('',(-12.1419585246081,2.5,3.));
#1661=CARTESIAN_POINT('',(-12.5,0.5,3.));
#1662=CARTESIAN_POINT('',(-12.5,3.,3.));
#1663=CARTESIAN_POINT('',(-15.,0.5,3.));
#1664=CARTESIAN_POINT('',(-12.5,0.500000000000001,3.));
#1665=CARTESIAN_POINT('',(-15.,-0.5,3.));
#1666=CARTESIAN_POINT('',(-15.,0.5,3.));
#1667=CARTESIAN_POINT('',(-15.,-0.5,3.));
#1668=CARTESIAN_POINT('Origin',(-12.5,-0.499999999999998,8.));
#1669=CARTESIAN_POINT('',(-15.,-0.5,8.));
#1670=CARTESIAN_POINT('',(-6.25,-0.499999999999994,8.));
#1671=CARTESIAN_POINT('',(-15.,-0.5,8.));
#1672=CARTESIAN_POINT('Origin',(-11.5,-0.499999999999998,8.));
#1673=CARTESIAN_POINT('',(-11.5,-2.5,8.));
#1674=CARTESIAN_POINT('',(-11.5,-2.5,6.49231661131715));
#1675=CARTESIAN_POINT('',(-11.5,-0.499999999999998,8.));
#1676=CARTESIAN_POINT('',(-11.5,-0.249999999999999,8.));
#1677=CARTESIAN_POINT('',(-11.5,-0.499999999999998,8.));
#1678=CARTESIAN_POINT('Origin',(-9.,-0.499999999999997,8.));
#1679=CARTESIAN_POINT('',(-9.,-0.499999999999997,8.));
#1680=CARTESIAN_POINT('',(-4.5,-0.499999999999995,8.));
#1681=CARTESIAN_POINT('',(-9.,-0.499999999999997,8.));
#1682=CARTESIAN_POINT('Origin',(-9.,0.500000000000003,8.));
#1683=CARTESIAN_POINT('',(-9.,0.500000000000003,8.));
#1684=CARTESIAN_POINT('',(-9.,0.250000000000001,8.));
#1685=CARTESIAN_POINT('',(-9.,0.500000000000003,8.));
#1686=CARTESIAN_POINT('Origin',(-11.5,0.500000000000002,8.));
#1687=CARTESIAN_POINT('',(-11.5,0.500000000000002,8.));
#1688=CARTESIAN_POINT('',(-5.75,0.500000000000004,8.));
#1689=CARTESIAN_POINT('',(-11.5,0.500000000000002,8.));
#1690=CARTESIAN_POINT('Origin',(-11.5,3.,8.));
#1691=CARTESIAN_POINT('',(-11.5,2.5,8.));
#1692=CARTESIAN_POINT('',(-11.5,2.5,6.49231661131715));
#1693=CARTESIAN_POINT('',(-11.5,1.5,8.));
#1694=CARTESIAN_POINT('Origin',(-12.5,0.5,8.));
#1695=CARTESIAN_POINT('',(-12.5,2.5,8.));
#1696=CARTESIAN_POINT('',(-12.5,2.5,6.49231661131715));
#1697=CARTESIAN_POINT('',(-12.5,0.5,8.));
#1698=CARTESIAN_POINT('',(-12.5,0.25,8.));
#1699=CARTESIAN_POINT('',(-12.5,0.5,8.));
#1700=CARTESIAN_POINT('Origin',(-15.,0.5,8.));
#1701=CARTESIAN_POINT('',(-15.,0.5,8.));
#1702=CARTESIAN_POINT('',(-7.5,0.500000000000001,8.));
#1703=CARTESIAN_POINT('',(-15.,0.5,8.));
#1704=CARTESIAN_POINT('Origin',(-15.,-0.5,8.));
#1705=CARTESIAN_POINT('',(-15.,-0.25,8.));
#1706=CARTESIAN_POINT('Origin',(11.5,-3.,8.));
#1707=CARTESIAN_POINT('',(11.5,-2.5,3.));
#1708=CARTESIAN_POINT('',(11.5,-2.5,8.));
#1709=CARTESIAN_POINT('',(11.5,-2.5,6.49231661131715));
#1710=CARTESIAN_POINT('',(11.5,-0.499999999999998,3.));
#1711=CARTESIAN_POINT('',(11.5,-0.499999999999998,3.));
#1712=CARTESIAN_POINT('',(11.5,-0.499999999999998,8.));
#1713=CARTESIAN_POINT('',(11.5,-0.499999999999998,8.));
#1714=CARTESIAN_POINT('',(11.5,-1.5,8.));
#1715=CARTESIAN_POINT('Origin',(12.,1.38777878078145E-15,3.));
#1716=CARTESIAN_POINT('',(12.5,-2.5,3.));
#1717=CARTESIAN_POINT('',(12.1419585246081,-2.5,3.));
#1718=CARTESIAN_POINT('',(12.5,-0.499999999999998,3.));
#1719=CARTESIAN_POINT('',(12.5,-3.,3.));
#1720=CARTESIAN_POINT('',(15.,-0.499999999999997,3.));
#1721=CARTESIAN_POINT('',(12.5,-0.499999999999998,3.));
#1722=CARTESIAN_POINT('',(15.,0.500000000000004,3.));
#1723=CARTESIAN_POINT('',(15.,-0.499999999999996,3.));
#1724=CARTESIAN_POINT('',(12.5,0.500000000000002,3.));
#1725=CARTESIAN_POINT('',(15.,0.500000000000003,3.));
#1726=CARTESIAN_POINT('',(12.5,2.5,3.));
#1727=CARTESIAN_POINT('',(12.5,0.500000000000002,3.));
#1728=CARTESIAN_POINT('',(11.5,2.5,3.));
#1729=CARTESIAN_POINT('',(12.1419585246081,2.5,3.));
#1730=CARTESIAN_POINT('',(11.5,0.5,3.));
#1731=CARTESIAN_POINT('',(11.5,3.,3.));
#1732=CARTESIAN_POINT('',(9.,0.5,3.));
#1733=CARTESIAN_POINT('',(11.5,0.500000000000001,3.));
#1734=CARTESIAN_POINT('',(9.,-0.499999999999999,3.));
#1735=CARTESIAN_POINT('',(9.,0.500000000000001,3.));
#1736=CARTESIAN_POINT('',(9.,-0.499999999999999,3.));
#1737=CARTESIAN_POINT('Origin',(11.5,-0.499999999999998,8.));
#1738=CARTESIAN_POINT('',(9.,-0.499999999999999,8.));
#1739=CARTESIAN_POINT('',(5.75,-0.500000000000002,8.));
#1740=CARTESIAN_POINT('',(9.,-0.499999999999999,8.));
#1741=CARTESIAN_POINT('Origin',(12.5,-0.499999999999998,8.));
#1742=CARTESIAN_POINT('',(12.5,-2.5,8.));
#1743=CARTESIAN_POINT('',(12.5,-2.5,6.49231661131715));
#1744=CARTESIAN_POINT('',(12.5,-0.499999999999998,8.));
#1745=CARTESIAN_POINT('',(12.5,-0.249999999999999,8.));
#1746=CARTESIAN_POINT('',(12.5,-0.499999999999998,8.));
#1747=CARTESIAN_POINT('Origin',(15.,-0.499999999999997,8.));
#1748=CARTESIAN_POINT('',(15.,-0.499999999999997,8.));
#1749=CARTESIAN_POINT('',(7.5,-0.5,8.));
#1750=CARTESIAN_POINT('',(15.,-0.499999999999997,8.));
#1751=CARTESIAN_POINT('Origin',(15.,0.500000000000004,8.));
#1752=CARTESIAN_POINT('',(15.,0.500000000000004,8.));
#1753=CARTESIAN_POINT('',(15.,0.250000000000002,8.));
#1754=CARTESIAN_POINT('',(15.,0.500000000000004,8.));
#1755=CARTESIAN_POINT('Origin',(12.5,0.500000000000002,8.));
#1756=CARTESIAN_POINT('',(12.5,0.500000000000002,8.));
#1757=CARTESIAN_POINT('',(6.25,0.499999999999999,8.));
#1758=CARTESIAN_POINT('',(12.5,0.500000000000002,8.));
#1759=CARTESIAN_POINT('Origin',(12.5,3.,8.));
#1760=CARTESIAN_POINT('',(12.5,2.5,8.));
#1761=CARTESIAN_POINT('',(12.5,2.5,6.49231661131715));
#1762=CARTESIAN_POINT('',(12.5,1.5,8.));
#1763=CARTESIAN_POINT('Origin',(11.5,0.5,8.));
#1764=CARTESIAN_POINT('',(11.5,2.5,8.));
#1765=CARTESIAN_POINT('',(11.5,2.5,6.49231661131715));
#1766=CARTESIAN_POINT('',(11.5,0.5,8.));
#1767=CARTESIAN_POINT('',(11.5,0.25,8.));
#1768=CARTESIAN_POINT('',(11.5,0.5,8.));
#1769=CARTESIAN_POINT('Origin',(9.,0.5,8.));
#1770=CARTESIAN_POINT('',(9.,0.5,8.));
#1771=CARTESIAN_POINT('',(4.5,0.5,8.));
#1772=CARTESIAN_POINT('',(9.,0.5,8.));
#1773=CARTESIAN_POINT('Origin',(9.,-0.499999999999999,8.));
#1774=CARTESIAN_POINT('',(9.,-0.25,8.));
#1775=CARTESIAN_POINT('Origin',(-2.44948974278318,-2.5,1.5));
#1776=CARTESIAN_POINT('',(-2.44948974278318,-2.5,8.));
#1777=CARTESIAN_POINT('',(2.44948974278318,-2.5,8.));
#1778=CARTESIAN_POINT('',(-2.44948974278318,-2.5,1.5));
#1779=CARTESIAN_POINT('',(-2.44948974278318,-2.5,1.5));
#1780=CARTESIAN_POINT('',(2.44948974278318,-2.5,1.5));
#1781=CARTESIAN_POINT('',(-1.22474487139159,-2.5,1.5));
#1782=CARTESIAN_POINT('',(2.44948974278318,-2.5,8.));
#1783=CARTESIAN_POINT('',(2.44948974278318,-2.5,1.5));
#1784=CARTESIAN_POINT('',(2.44948974278318,-2.5,8.));
#1785=CARTESIAN_POINT('Origin',(2.29362302357379E-16,1.42561559631521E-15,
8.));
#1786=CARTESIAN_POINT('',(-2.44948974278318,2.5,8.));
#1787=CARTESIAN_POINT('',(-2.44948974278318,2.5,8.));
#1788=CARTESIAN_POINT('Origin',(0.,5.55111512312578E-16,8.));
#1789=CARTESIAN_POINT('Origin',(-12.2839170492163,-2.5,4.9846332226343));
#1790=CARTESIAN_POINT('',(-16.928463629915,-2.5,8.));
#1791=CARTESIAN_POINT('',(16.928463629915,-2.5,8.));
#1792=CARTESIAN_POINT('',(-14.897213629915,-2.5,1.5));
#1793=CARTESIAN_POINT('',(-15.1125301824869,-2.5,2.18901296823005));
#1794=CARTESIAN_POINT('',(-8.5,-2.5,1.5));
#1795=CARTESIAN_POINT('',(-6.14195852460813,-2.5,1.5));
#1796=CARTESIAN_POINT('',(-8.5,-2.5,8.));
#1797=CARTESIAN_POINT('',(-8.5,-2.5,1.5));
#1798=CARTESIAN_POINT('',(16.928463629915,-2.5,8.));
#1799=CARTESIAN_POINT('Origin',(12.2839170492163,-2.5,4.98463322263431));
#1800=CARTESIAN_POINT('',(8.5,-2.5,8.));
#1801=CARTESIAN_POINT('',(16.928463629915,-2.5,8.));
#1802=CARTESIAN_POINT('',(8.5,-2.5,1.5));
#1803=CARTESIAN_POINT('',(8.5,-2.5,8.));
#1804=CARTESIAN_POINT('',(14.897213629915,-2.5,1.5));
#1805=CARTESIAN_POINT('',(6.14195852460813,-2.5,1.5));
#1806=CARTESIAN_POINT('',(16.928463629915,-2.5,8.));
#1807=CARTESIAN_POINT('',(15.1125301824869,-2.5,2.18901296823005));
#1808=CARTESIAN_POINT('',(16.928463629915,-2.5,8.));
#1809=CARTESIAN_POINT('Origin',(2.77555756156289E-15,-2.64251430654583E-16,
8.));
#1810=CARTESIAN_POINT('',(8.5,2.5,8.));
#1811=CARTESIAN_POINT('',(16.928463629915,2.5,8.));
#1812=CARTESIAN_POINT('',(8.5,-2.5,8.));
#1813=CARTESIAN_POINT('Origin',(2.77555756156289E-15,-2.64251430654583E-16,
8.));
#1814=CARTESIAN_POINT('',(-18.5,-9.,8.));
#1815=CARTESIAN_POINT('',(18.5,-9.,8.));
#1816=CARTESIAN_POINT('',(-18.5,-9.,8.));
#1817=CARTESIAN_POINT('',(18.5,9.,8.));
#1818=CARTESIAN_POINT('',(18.5,-9.,8.));
#1819=CARTESIAN_POINT('',(-18.5,9.,8.));
#1820=CARTESIAN_POINT('',(18.5,9.,8.));
#1821=CARTESIAN_POINT('',(-18.5,9.,8.));
#1822=CARTESIAN_POINT('',(-16.928463629915,2.5,8.));
#1823=CARTESIAN_POINT('',(16.928463629915,2.5,8.));
#1824=CARTESIAN_POINT('',(-16.928463629915,7.39799929775296,8.));
#1825=CARTESIAN_POINT('',(-16.928463629915,3.,8.));
#1826=CARTESIAN_POINT('',(16.928463629915,7.39799929775296,8.));
#1827=CARTESIAN_POINT('',(8.,7.39799929775296,8.));
#1828=CARTESIAN_POINT('',(16.928463629915,2.5,8.));
#1829=CARTESIAN_POINT('',(16.928463629915,-3.,8.));
#1830=CARTESIAN_POINT('',(16.928463629915,2.5,8.));
#1831=CARTESIAN_POINT('',(16.928463629915,-7.39799929775296,8.));
#1832=CARTESIAN_POINT('',(16.928463629915,-3.,8.));
#1833=CARTESIAN_POINT('',(-16.928463629915,-7.39799929775296,8.));
#1834=CARTESIAN_POINT('',(-8.,-7.39799929775296,8.));
#1835=CARTESIAN_POINT('',(-16.928463629915,3.,8.));
#1836=CARTESIAN_POINT('Origin',(-8.5,-2.5,8.));
#1837=CARTESIAN_POINT('',(-8.5,2.5,1.5));
#1838=CARTESIAN_POINT('',(-8.5,-1.25,1.5));
#1839=CARTESIAN_POINT('',(-8.5,2.5,8.));
#1840=CARTESIAN_POINT('',(-8.5,2.5,1.5));
#1841=CARTESIAN_POINT('',(-8.5,-2.5,8.));
#1842=CARTESIAN_POINT('Origin',(-12.2839170492163,2.5,4.9846332226343));
#1843=CARTESIAN_POINT('',(16.928463629915,2.5,8.));
#1844=CARTESIAN_POINT('',(-14.897213629915,2.5,1.5));
#1845=CARTESIAN_POINT('',(-6.14195852460813,2.5,1.5));
#1846=CARTESIAN_POINT('',(-15.1125301824869,2.5,2.18901296823005));
#1847=CARTESIAN_POINT('Origin',(8.5,-2.5,1.5));
#1848=CARTESIAN_POINT('',(8.5,2.5,1.5));
#1849=CARTESIAN_POINT('',(8.5,2.5,8.));
#1850=CARTESIAN_POINT('',(8.5,-1.25,1.5));
#1851=CARTESIAN_POINT('Origin',(12.2839170492163,2.5,4.98463322263431));
#1852=CARTESIAN_POINT('',(14.897213629915,2.5,1.5));
#1853=CARTESIAN_POINT('',(15.1125301824869,2.5,2.18901296823005));
#1854=CARTESIAN_POINT('',(6.14195852460813,2.5,1.5));
#1855=CARTESIAN_POINT('Origin',(-14.5682800329475,6.,0.447412489703921));
#1856=CARTESIAN_POINT('',(-14.897213629915,4.96049929775296,1.5));
#1857=CARTESIAN_POINT('',(-14.897213629915,3.,1.5));
#1858=CARTESIAN_POINT('',(-13.4421810757179,3.2144602327165,-3.15610417343055));
#1859=CARTESIAN_POINT('Origin',(14.5682800329475,-6.,0.44741248970392));
#1860=CARTESIAN_POINT('',(14.897213629915,-4.96049929775296,1.5));
#1861=CARTESIAN_POINT('',(14.897213629915,-3.,1.5));
#1862=CARTESIAN_POINT('',(13.4421810757179,-3.21446023271651,-3.15610417343054));
#1863=CARTESIAN_POINT('Origin',(4.44089209850063E-15,4.97765281701775E-16,
1.5));
#1864=CARTESIAN_POINT('',(-14.897213629915,-4.96049929775296,1.5));
#1865=CARTESIAN_POINT('',(-14.897213629915,3.,1.5));
#1866=CARTESIAN_POINT('',(-7.99999999999999,-4.96049929775296,1.5));
#1867=CARTESIAN_POINT('',(14.897213629915,4.96049929775296,1.5));
#1868=CARTESIAN_POINT('',(14.897213629915,-3.,1.5));
#1869=CARTESIAN_POINT('',(8.,4.96049929775296,1.5));
#1870=CARTESIAN_POINT('',(2.44948974278318,2.5,1.5));
#1871=CARTESIAN_POINT('Origin',(0.,5.55111512312578E-16,1.5));
#1872=CARTESIAN_POINT('',(-2.44948974278318,2.5,1.5));
#1873=CARTESIAN_POINT('Origin',(0.,5.55111512312578E-16,1.5));
#1874=CARTESIAN_POINT('',(1.22474487139159,2.5,1.5));
#1875=CARTESIAN_POINT('Origin',(0.,5.55111512312578E-16,1.5));
#1876=CARTESIAN_POINT('',(2.44948974278318,2.5,8.));
#1877=CARTESIAN_POINT('',(2.44948974278318,2.5,1.5));
#1878=CARTESIAN_POINT('Origin',(0.,5.55111512312578E-16,8.));
#1879=CARTESIAN_POINT('Origin',(0.,5.55111512312578E-16,1.5));
#1880=CARTESIAN_POINT('',(-2.44948974278318,2.5,1.5));
#1881=CARTESIAN_POINT('Origin',(2.44948974278318,2.5,1.5));
#1882=CARTESIAN_POINT('',(-2.44948974278318,2.5,8.));
#1883=CARTESIAN_POINT('Origin',(2.29362302357379E-16,1.42561559631521E-15,
8.));
#1884=CARTESIAN_POINT('Origin',(-16.,-4.59550623364643,0.526685162382588));
#1885=CARTESIAN_POINT('',(-14.1361873848662,-4.04726780369443,-0.935283984156096));
#1886=CARTESIAN_POINT('Origin',(14.5682800329475,-6.,0.44741248970392));
#1887=CARTESIAN_POINT('',(14.1361873848662,4.04726780369443,-0.935283984156098));
#1888=CARTESIAN_POINT('Origin',(16.,4.59550623364644,0.526685162382588));
#1889=CARTESIAN_POINT('Origin',(-14.5682800329475,6.,0.447412489703921));
#1890=CARTESIAN_POINT('Origin',(2.77555756156289E-15,-2.64251430654583E-16,
8.));
#1891=CARTESIAN_POINT('Origin',(4.44089209850063E-15,4.97765281701775E-16,
0.));
#1892=CARTESIAN_POINT('',(-16.,-6.,0.));
#1893=CARTESIAN_POINT('',(16.,-6.,0.));
#1894=CARTESIAN_POINT('',(-16.,-6.,0.));
#1895=CARTESIAN_POINT('',(-16.,6.,0.));
#1896=CARTESIAN_POINT('',(-16.,6.,0.));
#1897=CARTESIAN_POINT('',(16.,6.,0.));
#1898=CARTESIAN_POINT('',(16.,6.,0.));
#1899=CARTESIAN_POINT('',(16.,-6.,0.));
#1900=CARTESIAN_POINT('Origin',(-16.,-6.,0.));
#1901=CARTESIAN_POINT('',(16.,-6.,0.));
#1902=CARTESIAN_POINT('',(-16.,-6.,0.));
#1903=CARTESIAN_POINT('Origin',(16.,-6.,0.));
#1904=CARTESIAN_POINT('',(16.,6.,0.));
#1905=CARTESIAN_POINT('Origin',(16.,6.,0.));
#1906=CARTESIAN_POINT('',(-16.,6.,0.));
#1907=CARTESIAN_POINT('Origin',(-16.,6.,0.));
#1908=UNCERTAINTY_MEASURE_WITH_UNIT(LENGTH_MEASURE(0.01),#1912,
'DISTANCE_ACCURACY_VALUE',
'Maximum model space distance between geometric entities at asserted c
onnectivities');
#1909=UNCERTAINTY_MEASURE_WITH_UNIT(LENGTH_MEASURE(1.E-6),#1912,
'DISTANCE_ACCURACY_VALUE',
'Maximum model space distance between geometric entities at asserted c
onnectivities');
#1910=(
GEOMETRIC_REPRESENTATION_CONTEXT(3)
GLOBAL_UNCERTAINTY_ASSIGNED_CONTEXT((#1908))
GLOBAL_UNIT_ASSIGNED_CONTEXT((#1912,#1915,#1913))
REPRESENTATION_CONTEXT('','3D')
);
#1911=(
GEOMETRIC_REPRESENTATION_CONTEXT(3)
GLOBAL_UNCERTAINTY_ASSIGNED_CONTEXT((#1909))
GLOBAL_UNIT_ASSIGNED_CONTEXT((#1912,#1915,#1913))
REPRESENTATION_CONTEXT('','3D')
);
#1912=(
LENGTH_UNIT()
NAMED_UNIT(*)
SI_UNIT(.MILLI.,.METRE.)
);
#1913=(
NAMED_UNIT(*)
SI_UNIT($,.STERADIAN.)
SOLID_ANGLE_UNIT()
);
#1914=DIMENSIONAL_EXPONENTS(0.,0.,0.,0.,0.,0.,0.);
#1915=(
CONVERSION_BASED_UNIT('degree',#1917)
NAMED_UNIT(#1914)
PLANE_ANGLE_UNIT()
);
#1916=(
NAMED_UNIT(*)
PLANE_ANGLE_UNIT()
SI_UNIT($,.RADIAN.)
);
#1917=PLANE_ANGLE_MEASURE_WITH_UNIT(PLANE_ANGLE_MEASURE(0.01745329252),
#1916);
#1918=SHAPE_DEFINITION_REPRESENTATION(#1919,#1920);
#1919=PRODUCT_DEFINITION_SHAPE('',$,#1922);
#1920=SHAPE_REPRESENTATION('',(#1208),#1910);
#1921=PRODUCT_DEFINITION_CONTEXT('part definition',#1926,'design');
#1922=PRODUCT_DEFINITION('2.0u blank costar','2.0u blank costar',#1923,
#1921);
#1923=PRODUCT_DEFINITION_FORMATION('',$,#1928);
#1924=PRODUCT_RELATED_PRODUCT_CATEGORY('2.0u blank costar',
'2.0u blank costar',(#1928));
#1925=APPLICATION_PROTOCOL_DEFINITION('international standard',
'automotive_design',2009,#1926);
#1926=APPLICATION_CONTEXT(
'Core Data for Automotive Mechanical Design Process');
#1927=PRODUCT_CONTEXT('part definition',#1926,'mechanical');
#1928=PRODUCT('2.0u blank costar','2.0u blank costar',$,(#1927));
#1929=PRESENTATION_STYLE_ASSIGNMENT((#1930));
#1930=SURFACE_STYLE_USAGE(.BOTH.,#1931);
#1931=SURFACE_SIDE_STYLE($,(#1932));
#1932=SURFACE_STYLE_FILL_AREA(#1933);
#1933=FILL_AREA_STYLE($,(#1934));
#1934=FILL_AREA_STYLE_COLOUR($,#1935);
#1935=COLOUR_RGB('',0.749019607843137,0.749019607843137,0.749019607843137);
ENDSEC;
END-ISO-10303-21;
